<?xml version="1.0" standalone="no"?>
<!DOCTYPE svg PUBLIC "-//W3C//DTD SVG 20010904//EN"
 "http://www.w3.org/TR/2001/REC-SVG-20010904/DTD/svg10.dtd">
<svg version="1.0" xmlns="http://www.w3.org/2000/svg"
 width="963.000000pt" height="963.000000pt" viewBox="0 0 963.000000 963.000000"
 preserveAspectRatio="xMidYMid meet">
<metadata>
Created by potrace 1.10, written by Peter Selinger 2001-2011
</metadata>
<g transform="translate(0.000000,963.000000) scale(0.100000,-0.100000)"
fill="#38761d" stroke="none">
<path d="M8915 9395 c-27 -7 -100 -14 -161 -14 -80 -1 -115 -5 -130 -16 -12
-9 -42 -14 -80 -15 -34 0 -81 -7 -104 -15 -23 -8 -59 -15 -79 -15 -20 -1 -54
-9 -76 -20 -22 -11 -61 -19 -87 -20 -25 0 -48 -5 -50 -11 -2 -6 -19 -13 -38
-15 -54 -6 -230 -62 -318 -100 -18 -8 -42 -14 -54 -14 -17 0 -134 -52 -240
-106 -14 -8 -35 -14 -46 -14 -12 0 -23 -4 -26 -8 -3 -5 -44 -28 -90 -51 -47
-24 -88 -47 -92 -52 -3 -5 -16 -9 -29 -9 -13 0 -28 -8 -33 -17 -6 -9 -18 -18
-28 -19 -22 -3 -84 -35 -102 -51 -7 -7 -19 -13 -27 -13 -7 0 -15 -9 -18 -19
-3 -14 -11 -18 -26 -14 -13 3 -23 0 -27 -10 -3 -8 -37 -34 -75 -58 -65 -41
-217 -148 -249 -177 -8 -6 -44 -36 -80 -65 -86 -69 -133 -110 -201 -177 -31
-30 -73 -70 -93 -88 -20 -18 -36 -39 -36 -47 0 -7 -8 -16 -17 -19 -10 -3 -43
-33 -73 -67 -30 -34 -74 -81 -97 -105 -24 -23 -43 -47 -43 -52 0 -6 -26 -40
-57 -76 -104 -119 -156 -190 -212 -291 -19 -33 -40 -64 -47 -68 -8 -4 -14 -12
-14 -17 0 -10 -57 -98 -77 -118 -7 -7 -13 -21 -13 -31 0 -9 -5 -22 -11 -28
-14 -14 -23 -30 -73 -130 -21 -43 -42 -85 -47 -93 -23 -39 -49 -95 -49 -104 0
-5 -6 -17 -13 -25 -7 -9 -21 -36 -31 -61 -32 -78 -51 -115 -63 -123 -7 -4 -13
-19 -13 -31 0 -13 -7 -37 -15 -52 -8 -16 -15 -38 -15 -49 0 -11 -7 -29 -15
-39 -8 -11 -15 -30 -15 -42 0 -12 -7 -24 -15 -28 -9 -3 -15 -18 -15 -40 0 -18
-7 -47 -15 -62 -8 -16 -15 -42 -15 -59 0 -16 -7 -43 -15 -59 -8 -15 -15 -36
-15 -46 0 -10 -7 -31 -15 -46 -8 -16 -15 -40 -15 -54 0 -14 -7 -43 -15 -65 -8
-22 -14 -55 -15 -73 0 -18 -6 -43 -14 -55 -7 -12 -16 -49 -19 -81 -3 -32 -11
-64 -16 -69 -6 -6 -11 -34 -11 -63 0 -28 -7 -65 -15 -80 -9 -18 -15 -57 -15
-105 0 -42 -7 -98 -15 -125 -8 -27 -15 -87 -15 -134 0 -47 -7 -117 -15 -155
-10 -46 -15 -128 -15 -238 0 -110 -4 -176 -12 -190 -6 -12 -15 -69 -19 -127
-10 -149 -33 -311 -47 -337 -7 -12 -12 -46 -12 -76 0 -40 -4 -56 -15 -61 -10
-4 -15 -19 -15 -49 0 -25 -7 -64 -15 -87 -8 -23 -15 -53 -15 -67 0 -13 -7 -26
-15 -29 -9 -4 -15 -19 -15 -36 0 -16 -6 -41 -14 -56 -7 -15 -16 -48 -19 -73
-4 -25 -13 -59 -21 -75 -22 -44 -66 -157 -66 -171 0 -6 -7 -24 -15 -40 -56
-108 -135 -286 -135 -303 0 -11 -4 -20 -10 -20 -5 0 -19 -17 -30 -38 -54 -98
-83 -147 -91 -153 -11 -6 -49 -79 -49 -92 0 -5 -14 -26 -31 -46 -16 -20 -40
-48 -52 -64 -12 -15 -46 -53 -74 -85 -29 -31 -53 -61 -53 -65 0 -26 -362 -397
-386 -397 -8 0 -24 -14 -95 -85 -19 -19 -40 -35 -46 -35 -6 0 -27 -12 -46 -27
-86 -66 -127 -93 -138 -93 -7 0 -22 -9 -33 -19 -22 -20 -77 -55 -113 -70 -11
-5 -24 -15 -28 -20 -3 -6 -13 -11 -21 -11 -9 0 -30 -11 -48 -25 -18 -14 -39
-25 -47 -25 -8 0 -23 -6 -34 -14 -11 -7 -49 -26 -85 -40 -36 -15 -74 -31 -85
-35 -11 -5 -40 -16 -65 -26 -25 -9 -58 -23 -73 -31 -16 -8 -44 -14 -63 -14
-22 0 -37 -6 -40 -15 -4 -10 -20 -15 -49 -15 -26 0 -47 -6 -55 -15 -7 -9 -29
-15 -54 -15 -23 0 -51 -7 -62 -15 -10 -8 -37 -15 -59 -15 -22 0 -51 -7 -65
-15 -14 -8 -53 -15 -90 -15 -36 -1 -83 -7 -105 -15 -28 -11 -86 -15 -198 -15
-146 0 -158 -1 -178 -21 l-21 -21 -14 21 c-14 20 -24 21 -167 21 -106 0 -167
5 -201 15 -27 8 -79 15 -116 15 -48 0 -71 4 -80 15 -9 10 -32 15 -75 15 -43 0
-66 5 -75 15 -7 8 -29 15 -49 15 -21 0 -46 7 -57 15 -10 8 -31 15 -46 15 -15
0 -53 14 -85 30 -31 17 -67 30 -79 30 -12 0 -27 7 -34 15 -7 8 -22 15 -34 15
-11 0 -30 7 -40 15 -11 8 -26 15 -35 15 -13 0 -103 44 -267 129 -59 30 -121
71 -180 118 -23 18 -44 33 -48 33 -3 0 -6 -25 -6 -55 0 -42 4 -55 15 -55 9 0
14 -8 12 -22 -1 -17 4 -24 21 -26 13 -2 30 2 38 9 8 6 18 9 21 5 4 -4 1 -11
-7 -17 -12 -8 -9 -15 20 -39 19 -17 59 -42 88 -57 32 -15 57 -36 63 -50 10
-27 49 -31 74 -7 8 9 22 13 31 10 12 -5 13 -10 4 -27 -16 -28 0 -45 28 -30 25
13 82 15 82 2 0 -5 -7 -11 -15 -15 -26 -9 -17 -33 17 -46 18 -6 40 -16 48 -21
8 -5 22 -12 30 -15 8 -3 27 -11 42 -19 20 -10 30 -11 34 -3 10 15 -33 48 -62
48 -15 0 -24 6 -24 15 0 11 11 15 35 15 29 0 39 -6 53 -30 11 -20 25 -30 41
-30 13 0 29 -7 35 -15 6 -8 38 -22 71 -29 81 -19 280 -60 347 -71 20 -3 39
-12 42 -20 4 -12 27 -15 107 -15 78 0 108 -4 131 -18 28 -16 30 -16 42 0 7 10
20 18 29 18 23 0 69 -21 94 -43 11 -10 31 -17 42 -15 34 5 25 23 -14 26 -30 3
-35 7 -35 28 0 18 5 24 23 24 12 0 31 -7 41 -15 29 -22 89 -19 111 5 18 20 41
25 69 14 27 -10 18 -23 -21 -30 -34 -6 -52 -18 -53 -35 0 -4 14 -9 30 -13 36
-7 80 8 80 27 0 9 15 17 39 21 46 7 74 -1 67 -20 -9 -22 20 -36 61 -28 l38 7
-32 11 c-42 14 -46 30 -8 34 17 1 48 7 70 12 22 5 81 14 130 20 83 10 153 24
329 68 37 9 71 22 73 29 6 15 33 18 33 3 0 -13 47 -13 55 1 4 6 -2 13 -14 16
-27 7 -27 23 -1 23 11 0 20 -4 20 -10 0 -16 60 -12 76 5 9 8 26 15 39 15 15 0
25 7 28 21 5 18 11 21 35 16 35 -7 46 1 30 20 -19 23 6 40 36 23 22 -11 28
-10 56 14 17 14 38 26 46 26 8 0 14 4 14 8 0 5 18 14 40 21 22 7 46 21 53 31
7 12 23 20 39 20 18 0 28 5 28 15 0 17 65 22 75 5 3 -5 19 -10 35 -10 16 0 32
-4 35 -10 9 -15 25 -12 25 5 0 18 -37 38 -60 32 -23 -6 -45 7 -36 22 4 6 17
11 29 11 34 0 47 13 44 45 -1 21 3 30 16 33 15 3 17 -1 11 -22 -8 -33 11 -34
60 -5 40 23 46 39 17 39 -28 0 -52 11 -45 21 3 5 22 9 42 9 21 0 48 7 60 16
12 8 31 13 41 9 14 -4 21 0 26 15 3 11 13 20 21 20 8 0 14 6 14 14 0 8 4 17 8
20 15 9 52 -6 52 -20 0 -8 7 -14 15 -14 8 0 15 7 15 15 0 8 -6 15 -13 15 -15
0 -44 47 -34 56 3 4 23 3 44 -1 21 -4 32 -10 26 -12 -7 -3 -13 -12 -13 -21 1
-15 3 -14 15 2 20 26 19 32 -6 57 l-22 22 24 18 c13 10 27 19 32 19 10 0 9
-18 -3 -25 -18 -11 -11 -26 11 -23 14 2 25 16 34 41 11 33 11 38 -1 33 -12 -4
-12 -2 -4 14 12 22 25 26 35 10 3 -5 13 -10 21 -10 10 0 13 7 8 25 -11 43 23
44 61 0 19 -20 38 -34 44 -30 16 9 13 25 -5 25 -9 0 -18 9 -21 20 -3 11 -12
20 -19 20 -8 0 -14 4 -14 9 0 5 -3 17 -7 26 -5 15 -3 16 17 5 13 -7 36 -26 52
-43 21 -23 31 -28 39 -20 9 9 2 21 -25 49 -48 49 -45 79 7 59 12 -5 17 -2 17
8 0 9 9 19 20 22 11 3 20 13 20 21 0 8 7 14 15 14 18 0 19 12 4 27 -13 13 -4
33 15 33 8 0 16 9 19 20 3 12 14 20 26 20 16 0 21 6 21 25 0 19 5 25 21 25 12
0 23 -8 26 -19 3 -11 11 -22 19 -25 8 -3 14 -15 14 -28 0 -17 3 -19 12 -10 10
10 10 16 1 30 -7 9 -20 32 -29 50 -10 19 -23 36 -31 39 -19 8 -16 31 7 43 16
9 21 8 25 -5 3 -8 7 -22 10 -31 7 -22 25 -7 25 22 0 15 -6 24 -15 24 -17 0
-20 27 -5 50 8 12 12 9 22 -18 16 -41 32 -36 36 10 3 31 6 35 28 30 19 -3 24
0 24 17 0 34 29 38 54 6 19 -24 23 -25 35 -12 9 11 10 21 2 35 -12 23 -5 32
26 32 19 0 24 -7 29 -40 4 -26 12 -40 21 -40 10 0 13 6 9 15 -8 23 15 55 41
55 38 0 73 18 73 39 0 21 25 31 83 31 27 0 40 5 44 18 9 23 23 32 56 32 15 0
44 9 64 20 21 11 47 20 59 20 12 0 27 7 34 15 7 8 18 15 25 15 8 0 26 6 42 14
15 8 44 19 63 26 118 42 135 50 144 69 12 27 0 39 -22 24 -10 -6 -32 -14 -49
-17 -18 -4 -56 -19 -85 -33 -29 -14 -75 -32 -103 -40 -27 -9 -76 -28 -107 -44
-32 -16 -70 -29 -86 -29 -16 0 -37 -9 -47 -20 -10 -11 -27 -20 -37 -20 -10 0
-33 -7 -50 -16 -18 -9 -52 -18 -77 -19 -46 -3 -48 -5 -65 -59 -6 -18 -8 -18
-31 4 -21 20 -28 22 -50 12 -14 -6 -25 -16 -25 -22 0 -5 -21 -10 -47 -10 -37
0 -53 -6 -74 -26 -26 -25 -26 -25 -32 -4 -4 16 1 23 19 30 15 6 24 18 24 30 0
25 25 37 44 21 19 -16 25 -4 13 29 -10 27 -8 33 21 63 18 18 32 38 32 45 0 23
16 12 33 -23 9 -19 23 -35 32 -35 19 0 19 11 0 36 -8 10 -15 38 -15 62 0 36 3
42 21 42 19 0 21 4 15 43 -8 52 0 77 24 77 13 0 20 11 25 41 4 22 15 48 25 57
9 9 25 50 35 90 15 65 20 72 41 72 25 0 37 18 48 73 9 37 36 36 36 -2 0 -35 9
-61 21 -61 15 0 10 77 -6 90 -8 7 -15 28 -15 46 0 37 44 179 61 201 7 7 13 34
14 61 2 26 4 47 5 47 7 0 35 215 47 360 7 78 11 93 17 70 9 -34 10 -36 36 -85
16 -31 19 -33 26 -16 4 10 2 27 -4 37 -7 10 -12 33 -12 51 0 18 -4 38 -8 45
-12 19 11 306 26 311 9 3 12 -19 14 -85 1 -49 3 -68 5 -43 3 24 9 50 14 57 7
7 7 25 0 50 -5 21 -9 127 -9 235 0 109 -3 219 -6 245 -3 27 -2 64 3 83 7 29 9
19 10 -52 1 -49 5 -88 10 -88 11 0 24 36 18 47 -3 5 -1 46 3 93 6 64 5 89 -5
100 -16 19 -8 125 11 141 8 6 14 26 14 45 0 18 6 39 14 47 11 11 14 35 10 108
-4 81 -3 92 9 77 20 -25 24 -23 31 17 8 43 0 61 -19 45 -28 -23 -47 16 -25 50
9 13 12 13 24 -3 12 -16 14 -14 20 20 3 21 6 66 6 101 0 45 4 64 14 68 8 3 25
24 36 47 18 33 21 51 16 89 -6 46 -6 48 21 54 36 9 43 21 32 51 -14 38 -11 75
9 97 10 12 24 46 32 76 7 30 21 61 31 68 15 10 16 17 8 41 -6 16 -9 44 -6 63
4 30 5 31 12 11 10 -32 21 -28 29 10 8 43 39 117 49 117 12 0 8 38 -4 42 -8 3
-10 16 -5 41 8 41 26 50 26 13 0 -14 5 -28 10 -31 11 -7 14 5 11 56 -2 29 2
37 18 42 15 4 21 13 21 35 0 17 -4 34 -10 37 -15 9 -12 35 4 35 8 0 17 11 20
25 3 13 22 36 41 51 22 16 35 35 35 49 0 25 15 41 43 46 21 4 55 54 44 65 -3
4 -14 -3 -24 -15 -13 -15 -22 -18 -33 -11 -12 8 -11 12 6 32 12 13 24 35 28
51 10 41 36 35 36 -8 0 -25 4 -35 15 -35 23 0 30 28 11 49 -22 24 -20 44 7 56
18 9 22 17 19 53 -2 33 1 42 14 42 9 0 18 -9 21 -21 6 -20 6 -20 29 2 13 12
24 31 24 41 0 9 11 25 25 34 33 21 42 52 19 68 -22 16 -12 62 15 71 10 3 24
19 31 35 7 16 20 32 30 35 11 3 27 23 37 43 10 20 30 43 44 49 16 8 29 24 32
41 6 31 40 52 85 52 15 1 41 12 57 25 30 25 30 25 6 25 -14 0 -33 -8 -43 -17
-15 -13 -21 -14 -31 -4 -9 11 -9 15 2 19 7 2 21 13 31 25 17 19 22 24 80 80
16 15 39 27 54 27 28 0 41 18 51 71 5 25 14 40 31 48 13 6 24 15 24 20 0 12
29 41 41 41 13 0 11 -54 -3 -68 -9 -9 -8 -12 8 -12 11 0 25 5 32 12 17 17 15
57 -3 64 -8 4 -15 9 -15 13 0 4 36 27 81 50 76 41 81 45 75 71 -5 27 -4 28 34
23 31 -4 40 -2 40 10 0 8 -9 17 -21 20 -12 3 -18 10 -14 16 9 16 52 13 59 -4
3 -8 13 -15 21 -15 12 0 15 8 13 33 -3 30 -1 33 47 48 45 15 51 20 55 50 3 22
8 30 13 22 13 -21 58 -16 64 6 3 11 14 21 26 23 28 4 35 28 8 28 -12 0 -21 5
-21 10 0 6 6 10 14 10 8 0 18 -4 21 -10 3 -5 19 -10 35 -10 16 0 32 5 35 10 4
6 -7 10 -25 10 -25 0 -31 4 -28 18 2 9 14 18 28 20 14 2 29 8 34 13 6 5 18 9
28 9 9 0 22 9 28 20 6 12 21 20 35 20 14 0 25 5 25 11 0 7 10 9 25 7 17 -4 25
-1 25 8 0 18 55 45 75 38 11 -5 27 7 51 35 36 42 69 52 92 29 6 -6 15 -8 19
-4 4 4 1 11 -6 16 -8 4 -11 15 -8 24 8 20 27 21 27 1 0 -18 65 -21 75 -4 4 5
18 14 31 19 33 13 30 30 -6 30 -40 0 -38 17 2 25 17 4 38 14 46 21 20 21 60
17 67 -6 3 -11 10 -20 15 -20 11 0 40 29 40 41 0 5 11 9 25 9 13 0 40 14 59
30 30 27 37 29 60 19 21 -10 29 -9 43 3 42 35 223 88 257 75 9 -4 31 3 50 14
18 10 40 17 49 13 8 -3 29 2 46 10 16 9 38 16 48 16 10 0 37 9 58 21 35 18 61
22 205 25 91 3 201 9 245 15 146 20 527 25 620 9 33 -5 77 -10 98 -10 37 0 37
0 37 40 l0 40 -42 0 c-24 0 -68 7 -98 15 -72 19 -500 19 -575 0z m-1400 -425
c-3 -5 -15 -10 -26 -10 -10 0 -19 5 -19 10 0 6 12 10 26 10 14 0 23 -4 19 -10z
m-1685 -1404 c0 -3 -4 -17 -10 -31 -12 -31 -30 -24 -30 11 0 17 5 24 20 24 11
0 20 -2 20 -4z m-560 -1051 c0 -8 -4 -15 -10 -15 -5 0 -10 7 -10 15 0 8 5 15
10 15 6 0 10 -7 10 -15z m-210 -961 c0 -8 -4 -14 -10 -14 -5 0 -10 9 -10 21 0
11 5 17 10 14 6 -3 10 -13 10 -21z m-330 -1974 c0 -18 -6 -33 -15 -36 -8 -4
-15 -12 -15 -20 0 -8 -4 -14 -10 -14 -16 0 -12 27 5 34 9 3 15 18 15 36 0 16
5 30 10 30 6 0 10 -14 10 -30z m-656 -1156 c9 -25 7 -34 -8 -34 -19 0 -29 17
-22 35 7 20 22 19 30 -1z m-34 -49 c0 -8 -7 -15 -15 -15 -16 0 -20 12 -8 23
11 12 23 8 23 -8z m-3770 -665 c0 -5 -9 -10 -20 -10 -11 0 -20 5 -20 10 0 6 9
10 20 10 11 0 20 -4 20 -10z m278 -148 c3 -9 -3 -13 -19 -10 -12 1 -24 9 -27
16 -3 9 3 13 19 10 12 -1 24 -9 27 -16z m2282 -2 c-8 -5 -25 -10 -37 -10 -13
0 -23 -4 -23 -10 0 -5 -5 -10 -12 -10 -6 0 -3 9 7 20 11 12 31 20 49 20 24 0
27 -3 16 -10z m-2025 -60 c4 -6 -8 -10 -29 -10 -20 0 -36 5 -36 10 0 6 13 10
29 10 17 0 33 -4 36 -10z m652 -136 c-9 -9 -28 6 -21 18 4 6 10 6 17 -1 6 -6
8 -13 4 -17z"/>
<path d="M8479 9230 l-24 -20 75 3 c59 1 75 5 75 17 0 25 -96 26 -126 0z"/>
<path d="M8384 9195 c-18 -15 -18 -15 5 -13 14 2 26 9 29 16 5 17 -10 15 -34
-3z"/>
<path d="M8281 9174 c-15 -11 -19 -20 -13 -26 15 -15 52 1 52 23 0 23 -9 24
-39 3z"/>
<path d="M8112 9158 c7 -19 38 -22 38 -4 0 10 -9 16 -21 16 -12 0 -19 -5 -17
-12z"/>
<path d="M8180 9160 c0 -5 7 -10 15 -10 8 0 15 5 15 10 0 6 -7 10 -15 10 -8 0
-15 -4 -15 -10z"/>
<path d="M7607 9013 c-13 -12 -7 -23 11 -23 10 0 23 -5 30 -12 9 -9 12 -8 12
5 0 9 -9 21 -19 27 -23 12 -26 12 -34 3z"/>
<path d="M7568 8908 c9 -9 15 -9 24 0 9 9 7 12 -12 12 -19 0 -21 -3 -12 -12z"/>
<path d="M7160 8765 c0 -8 9 -15 20 -15 11 0 20 7 20 15 0 8 -9 15 -20 15 -11
0 -20 -7 -20 -15z"/>
<path d="M7118 8742 c-10 -2 -18 -7 -18 -12 0 -5 -10 -10 -22 -12 -30 -4 -35
-34 -9 -43 26 -8 41 1 41 26 0 12 7 19 19 19 11 0 22 4 25 9 7 11 -13 19 -36
13z"/>
<path d="M6870 8520 c0 -13 20 -13 40 0 12 8 9 10 -12 10 -16 0 -28 -4 -28
-10z"/>
<path d="M6817 8484 c-13 -13 -7 -24 14 -24 11 0 19 5 17 12 -5 14 -22 21 -31
12z"/>
<path d="M6870 8430 c0 -5 11 -10 25 -10 14 0 25 5 25 10 0 6 -11 10 -25 10
-14 0 -25 -4 -25 -10z"/>
<path d="M9018 8383 c-27 -7 -22 -23 7 -23 14 0 25 -5 25 -11 0 -7 -10 -9 -27
-5 -51 11 -413 18 -413 8 0 -15 27 -22 80 -22 74 0 69 -17 -8 -26 -75 -9 -122
-7 -136 7 -13 12 -76 12 -76 0 0 -6 5 -13 10 -16 20 -12 -2 -25 -44 -25 -23 0
-46 -4 -51 -8 -6 -5 -32 -13 -60 -20 -175 -39 -197 -46 -209 -64 -13 -18 -85
-42 -163 -55 -33 -5 -42 -16 -23 -28 21 -13 10 -27 -16 -21 -20 5 -44 -4 -103
-39 -43 -25 -83 -45 -89 -45 -6 0 -14 -9 -17 -20 -8 -25 -45 -27 -45 -2 0 13
-7 9 -28 -15 -15 -18 -40 -35 -55 -39 -16 -4 -34 -18 -43 -35 -10 -20 -22 -29
-39 -29 -17 0 -29 -8 -37 -25 -6 -14 -20 -25 -31 -25 -20 0 -97 -39 -97 -50 0
-3 -9 -16 -20 -28 -17 -18 -25 -20 -47 -11 -33 12 -39 6 -24 -27 6 -15 10 -28
9 -29 -7 -6 -47 -25 -52 -25 -3 0 -6 6 -6 14 0 20 -16 29 -40 21 -16 -5 -17
-10 -8 -31 6 -13 15 -24 20 -24 23 0 3 -18 -31 -29 -32 -9 -41 -17 -46 -41 -8
-35 -38 -60 -75 -61 -14 0 -19 -3 -12 -6 6 -2 12 -9 12 -15 0 -16 -51 -67
-113 -110 -31 -23 -63 -53 -70 -67 -9 -20 -21 -27 -50 -29 -40 -3 -46 -12 -22
-32 14 -12 14 -15 -1 -31 -10 -11 -30 -19 -46 -19 -26 0 -28 -3 -28 -39 0 -32
-8 -49 -39 -85 -22 -25 -43 -56 -46 -68 -4 -13 -17 -33 -29 -46 -11 -13 -26
-40 -31 -60 -8 -27 -17 -38 -33 -40 -30 -4 -54 -52 -46 -91 6 -26 3 -31 -13
-31 -28 0 -50 -28 -59 -75 -5 -28 -19 -52 -47 -79 -35 -33 -38 -40 -24 -48 10
-5 17 -20 17 -33 0 -18 -4 -22 -20 -18 -11 3 -20 14 -20 24 0 11 -7 19 -15 19
-8 0 -15 -9 -15 -20 0 -11 7 -20 15 -20 20 0 21 -68 0 -76 -8 -3 -17 -25 -21
-49 -5 -35 -11 -45 -28 -47 -18 -3 -22 -11 -26 -70 -4 -49 -11 -73 -26 -90
-14 -15 -24 -43 -28 -81 -3 -32 -15 -74 -26 -95 -11 -20 -20 -53 -20 -73 0
-59 -11 -98 -29 -101 -13 -3 -16 -16 -16 -63 -1 -36 -8 -74 -18 -94 -9 -19
-17 -44 -17 -56 0 -13 -7 -26 -16 -29 -12 -5 -15 -14 -9 -39 15 -73 17 -118 5
-132 -40 -48 -48 -84 -38 -161 5 -41 7 -87 2 -102 -10 -36 -11 -46 -17 -209
-5 -126 -8 -145 -28 -172 -19 -25 -21 -37 -15 -83 8 -61 8 -63 6 -183 -1 -65
-6 -97 -18 -115 -13 -20 -17 -52 -18 -155 -1 -124 -10 -186 -38 -269 -13 -38
-13 -38 -20 -12 -9 35 -26 33 -26 -3 0 -16 -6 -36 -13 -43 -21 -20 -29 -94
-16 -138 11 -36 9 -45 -16 -101 -15 -34 -33 -92 -39 -130 -6 -37 -14 -71 -18
-74 -4 -4 -5 -20 -2 -35 4 -15 1 -31 -5 -34 -6 -4 -11 -18 -11 -31 0 -18 -11
-28 -47 -46 -27 -13 -54 -31 -61 -41 -7 -10 -19 -18 -26 -18 -12 0 -71 -23
-136 -53 -14 -6 -41 -16 -60 -22 -42 -13 -45 -35 -7 -48 39 -13 77 -1 77 23 0
16 7 20 34 20 22 0 36 -6 40 -16 4 -11 13 -13 28 -8 33 10 35 14 14 29 -22 17
-13 35 19 35 24 0 45 -39 45 -83 0 -20 -1 -20 -13 -2 -17 22 -37 12 -37 -20 0
-39 -11 -55 -36 -55 -30 0 -31 -22 -4 -57 23 -30 24 -32 5 -56 -13 -18 -14
-18 -34 2 -12 12 -29 20 -39 20 -13 -1 -13 -2 -2 -5 17 -5 40 -49 40 -76 0
-13 -8 -18 -25 -18 -22 0 -25 -4 -25 -34 0 -21 -6 -36 -15 -40 -19 -7 -19 -25
1 -47 9 -10 13 -23 9 -28 -9 -16 -35 -13 -35 3 0 12 -20 26 -36 26 -2 0 -4
-13 -4 -30 0 -16 5 -30 10 -30 15 0 12 -37 -5 -54 -8 -8 -15 -21 -15 -29 0 -8
-9 -24 -20 -37 -11 -13 -20 -29 -20 -37 0 -7 -11 -18 -25 -23 -26 -10 -36 -52
-15 -65 6 -3 10 -16 10 -28 0 -22 -1 -22 -19 2 -22 29 -37 22 -46 -22 -4 -17
-14 -39 -22 -48 -8 -9 -18 -29 -22 -45 -9 -37 -31 -44 -31 -10 0 16 -6 26 -15
26 -20 0 -20 -46 1 -54 10 -4 14 -15 12 -33 -4 -36 -22 -36 -26 -1 -4 36 -32
38 -32 3 0 -14 -7 -28 -15 -31 -17 -7 -21 -64 -5 -64 6 0 10 -7 10 -15 0 -11
-8 -13 -30 -8 -29 5 -30 5 -30 -34 0 -44 -7 -57 -24 -44 -13 9 -76 -14 -76
-28 0 -5 9 -13 20 -16 29 -9 25 -35 -5 -35 -14 0 -25 5 -25 10 0 6 -8 10 -17
10 -16 -1 -16 -2 1 -15 16 -12 17 -18 8 -27 -9 -9 -15 -8 -25 7 -9 12 -16 14
-21 7 -3 -6 1 -15 10 -20 18 -10 16 -43 -3 -49 -6 -2 -14 5 -18 16 -8 25 -21
27 -29 4 -4 -10 -1 -20 9 -25 8 -5 15 -20 15 -33 0 -27 -9 -32 -27 -14 -8 8
-21 4 -47 -14 -31 -21 -34 -26 -22 -36 13 -11 13 -15 -5 -34 -17 -19 -22 -20
-40 -9 -26 17 -34 10 -20 -16 6 -12 11 -30 11 -41 0 -19 -1 -20 -30 -3 -16 9
-30 23 -30 30 0 6 -5 12 -11 12 -7 0 -8 -13 -4 -38 5 -29 2 -42 -9 -52 -9 -7
-16 -24 -16 -37 0 -20 -3 -23 -14 -14 -10 8 -19 7 -37 -8 -13 -10 -40 -27 -59
-37 -46 -25 -80 -55 -80 -71 0 -21 27 -15 33 7 3 11 12 20 21 20 9 0 16 7 16
15 0 16 12 18 48 9 28 -8 29 -24 2 -24 -12 0 -37 -16 -57 -35 -37 -36 -57 -43
-68 -25 -3 6 -13 10 -20 10 -17 0 -10 -26 13 -52 13 -16 13 -18 -1 -18 -8 0
-17 6 -20 13 -3 9 -10 9 -32 -3 -47 -25 -115 -91 -115 -111 0 -12 -7 -19 -20
-19 -11 0 -20 5 -20 10 0 15 -28 12 -55 -6 -29 -19 -32 -39 -8 -52 10 -6 14
-16 10 -26 -9 -22 -27 -20 -27 3 0 14 -10 20 -39 25 -48 7 -71 0 -71 -24 0
-12 10 -21 30 -25 16 -4 30 -10 30 -13 0 -8 -80 -42 -99 -42 -8 0 -38 -11 -68
-26 -44 -21 -53 -29 -48 -45 5 -13 2 -19 -9 -19 -9 0 -24 -9 -33 -20 -10 -11
-25 -20 -35 -20 -9 0 -20 -5 -23 -10 -5 -9 -69 -40 -81 -40 -2 0 -3 10 -1 22
1 17 -4 24 -21 26 -29 4 -31 -33 -1 -48 16 -9 18 -14 8 -26 -18 -22 -70 -18
-76 6 -6 23 -34 20 -64 -6 -8 -8 -23 -14 -32 -14 -9 0 -29 -11 -44 -24 -25
-22 -27 -27 -15 -47 18 -29 -2 -53 -22 -26 -7 9 -18 17 -24 17 -25 0 -62 -24
-62 -41 0 -23 -15 -32 -41 -24 -26 9 -20 28 12 35 l24 6 -22 6 c-13 3 -26 2
-29 -4 -3 -5 -17 -13 -31 -19 -25 -9 -23 -29 3 -29 8 0 14 -7 14 -15 0 -21
-50 -19 -66 3 -10 13 -15 15 -25 5 -10 -10 -9 -16 7 -27 18 -14 18 -15 1 -22
-11 -4 -22 -1 -30 9 -17 23 -85 49 -108 42 -26 -9 -19 -29 11 -33 35 -6 73
-33 61 -45 -13 -13 -78 0 -85 18 -7 19 -56 20 -56 1 0 -8 9 -18 20 -21 11 -3
20 -13 20 -21 0 -17 -33 -18 -59 -2 -15 9 -26 8 -54 -5 -34 -17 -109 -35 -172
-44 -16 -2 -59 -7 -95 -12 -39 -5 -84 -19 -113 -36 -37 -21 -55 -26 -80 -20
-51 11 -106 11 -109 0 -2 -5 12 -11 30 -13 18 -2 30 -8 27 -13 -8 -12 -82 -12
-90 1 -8 13 -244 2 -261 -12 -17 -12 -440 -14 -456 -1 -7 6 -37 13 -66 17 -49
6 -53 5 -62 -19 -9 -23 -14 -25 -71 -25 -69 0 -70 8 -2 30 47 16 55 36 13 33
-14 -1 -75 -11 -136 -24 -106 -21 -164 -21 -164 1 0 6 33 10 75 10 60 0 75 3
75 15 0 12 -14 15 -69 15 -39 0 -73 -4 -76 -10 -8 -13 -85 -13 -85 0 0 6 10
15 23 19 19 8 20 10 5 16 -10 4 -32 2 -49 -4 -45 -16 -104 -14 -119 4 -14 17
-70 21 -70 5 0 -5 -5 -10 -11 -10 -6 0 -9 6 -6 14 4 11 -8 17 -45 25 -27 6
-84 22 -126 36 -42 14 -91 25 -108 25 -18 0 -59 14 -92 30 -34 17 -70 30 -81
30 -11 0 -25 9 -31 20 -9 17 -17 19 -49 14 -42 -7 -61 7 -41 31 19 23 -12 19
-43 -5 -36 -29 -48 -25 -40 11 6 30 5 30 -28 27 -29 -3 -34 -7 -37 -31 -5 -44
3 -50 148 -114 19 -9 47 -22 62 -30 14 -7 38 -13 52 -13 14 0 26 -4 26 -9 0
-10 76 -39 135 -51 22 -4 56 -13 75 -20 79 -27 97 -32 138 -41 23 -5 51 -13
61 -19 11 -5 37 -10 58 -10 22 0 48 -7 59 -15 11 -8 42 -14 75 -15 38 0 61 -5
69 -15 9 -11 34 -15 97 -15 60 0 93 -5 116 -17 29 -16 77 -17 522 -17 433 1
494 3 527 17 23 11 64 17 105 17 41 0 79 6 97 15 15 8 51 15 80 15 28 1 62 7
76 15 14 8 46 14 71 15 25 0 54 7 65 15 10 8 36 15 56 15 20 0 43 7 52 15 8 8
27 15 43 15 15 1 39 7 53 15 14 8 39 15 55 15 17 0 39 7 49 15 11 8 29 15 40
15 12 0 30 7 40 15 11 8 28 15 38 15 17 0 68 20 120 46 14 8 35 14 46 14 11 0
25 6 31 14 7 8 22 17 35 20 20 5 125 53 166 75 8 5 33 17 55 26 22 10 47 22
55 27 8 4 22 11 30 14 8 3 22 10 30 15 8 5 22 12 30 16 8 3 34 19 57 35 23 15
44 28 48 28 3 0 35 20 71 45 35 25 67 45 71 45 10 0 149 98 232 162 34 27 63
48 66 48 2 0 17 12 32 26 15 15 58 51 95 80 90 73 118 99 118 113 0 6 4 11 9
11 5 0 26 16 47 35 20 19 38 35 40 35 10 0 246 251 268 285 11 17 47 64 81
105 95 117 249 330 265 368 5 12 14 22 20 22 5 0 10 5 10 12 0 11 20 44 72
120 10 15 18 34 18 42 0 7 7 16 15 20 8 3 15 14 15 25 0 11 4 22 9 26 5 3 26
40 46 83 21 42 41 84 46 92 22 40 58 119 70 155 7 22 17 45 22 52 18 25 47 88
47 103 0 8 7 24 15 34 8 11 15 29 15 41 0 12 7 30 15 41 8 10 15 29 15 40 0
12 7 27 15 34 8 7 15 20 15 29 0 9 7 27 16 40 12 17 15 36 11 71 -5 42 -3 49
14 53 12 3 19 14 19 30 0 13 7 41 15 60 8 20 15 47 15 61 0 13 7 37 15 52 8
16 15 40 15 54 1 14 7 36 15 50 8 14 14 41 15 61 0 20 7 50 15 65 8 16 15 49
15 74 1 25 7 56 15 70 8 14 14 50 15 81 0 31 7 73 15 92 8 20 15 65 15 99 1
36 7 74 15 88 10 17 15 58 15 130 0 58 5 137 10 175 6 39 15 149 20 245 6 96
15 179 20 184 6 6 10 61 10 124 0 87 3 117 15 128 11 11 15 37 15 93 0 47 5
82 12 89 7 7 13 36 14 65 1 29 9 74 18 100 9 26 16 63 16 83 0 23 6 37 16 41
13 5 15 15 11 47 -5 34 -2 44 12 53 13 8 21 28 24 60 8 73 22 127 40 154 10
13 17 33 17 45 0 25 36 110 50 119 6 3 10 17 10 29 0 13 7 29 15 36 9 7 15 29
15 51 0 26 7 46 20 59 11 11 20 26 20 34 0 8 16 38 35 67 19 30 35 61 35 70 0
9 7 22 14 29 8 6 20 28 27 48 6 20 19 46 28 57 10 11 23 31 30 45 39 78 111
190 122 190 5 0 15 15 23 34 8 19 24 39 35 46 12 6 21 17 21 25 0 8 11 22 24
30 14 9 29 30 35 46 5 16 17 32 26 35 8 3 15 11 15 17 0 7 20 30 45 54 25 23
45 44 45 47 0 7 151 156 158 156 2 0 29 25 59 55 30 30 60 55 65 55 5 0 35 24
66 53 31 29 97 80 147 113 49 32 98 67 107 77 10 9 24 17 31 17 8 0 34 14 58
32 48 35 230 131 269 143 26 7 113 45 163 71 16 8 35 14 42 14 7 0 26 7 42 15
40 21 180 65 233 74 25 4 55 13 67 19 12 7 40 12 62 12 21 0 52 6 68 14 38 19
144 36 283 46 63 4 131 13 150 19 42 13 294 15 319 2 9 -6 79 -13 154 -17
l137 -7 0 57 c0 42 -4 56 -14 56 -8 0 -18 -5 -21 -10 -8 -13 -465 -4 -479 10
-10 10 -66 12 -98 3z m-3098 -4143 c0 -16 -4 -30 -10 -30 -5 0 -10 14 -10 30
0 17 5 30 10 30 6 0 10 -13 10 -30z m-840 -2117 c0 -20 -3 -24 -11 -16 -7 7
-9 19 -6 27 10 24 17 19 17 -11z m-450 -558 c0 -8 -4 -15 -9 -15 -5 0 -11 7
-15 15 -3 9 0 15 9 15 8 0 15 -7 15 -15z m-767 -585 c-5 -20 -23 -26 -36 -13
-9 8 12 33 28 33 8 0 11 -8 8 -20z m-363 -180 c0 -12 -28 -25 -36 -17 -9 9 6
27 22 27 8 0 14 -5 14 -10z m-2560 -370 c0 -5 -12 -10 -26 -10 -14 0 -23 4
-19 10 3 6 15 10 26 10 10 0 19 -4 19 -10z m1280 -30 c0 -5 -18 -10 -40 -10
-22 0 -40 5 -40 10 0 6 18 10 40 10 22 0 40 -4 40 -10z"/>
<path d="M8508 8373 c12 -2 30 -2 40 0 9 3 -1 5 -23 4 -22 0 -30 -2 -17 -4z"/>
<path d="M884 8315 c-12 -9 -44 -15 -94 -15 -50 0 -82 -6 -94 -15 -12 -9 -42
-15 -72 -15 -34 0 -56 -5 -64 -15 -7 -8 -29 -15 -49 -15 -20 0 -45 -7 -55 -15
-11 -8 -36 -15 -56 -15 -20 0 -45 -7 -56 -15 -10 -8 -29 -15 -41 -15 -12 0
-39 -7 -60 -16 -21 -9 -54 -24 -73 -32 -19 -8 -48 -21 -63 -28 -16 -8 -37 -14
-46 -14 -29 0 -61 -35 -61 -65 0 -25 2 -27 32 -21 18 4 41 7 51 7 9 0 17 7 17
15 0 8 6 14 13 14 19 0 37 -21 37 -42 0 -11 7 -18 19 -18 11 0 23 -4 26 -10
11 -18 35 -11 35 11 0 15 -6 20 -22 19 -59 -5 -66 12 -13 30 19 6 35 16 35 21
0 5 5 9 11 9 6 0 37 16 70 36 49 30 61 35 74 24 8 -7 15 -21 15 -31 0 -28 18
-23 61 16 27 24 49 35 72 36 50 1 112 23 112 39 0 15 25 16 237 8 70 -3 102
14 38 20 -55 5 -61 22 -8 22 28 0 48 -5 51 -12 4 -10 7 -10 18 0 21 19 105 15
151 -9 42 -21 53 -18 60 16 3 19 11 20 110 20 87 -1 110 -4 126 -18 26 -24 94
-35 90 -16 -2 11 17 15 91 17 113 3 144 -5 86 -23 l-40 -12 37 -7 c23 -5 49
-3 73 5 28 11 40 11 55 1 25 -15 87 -16 92 0 2 6 10 8 17 4 9 -6 8 -11 -6 -22
-16 -12 -14 -13 24 -14 48 0 152 -25 167 -40 5 -5 29 -7 53 -3 34 5 43 3 43
-9 0 -9 -9 -18 -20 -21 -22 -6 -28 -27 -7 -27 6 0 25 7 41 15 15 8 39 15 52
15 36 0 29 -26 -8 -34 -25 -5 -29 -9 -20 -18 10 -10 20 -8 47 6 35 19 65 16
65 -6 1 -7 20 -27 44 -45 53 -39 60 -68 41 -160 -8 -37 -15 -82 -15 -100 0
-18 -7 -36 -14 -40 -12 -6 -15 -33 -16 -113 -1 -58 1 -117 5 -133 4 -16 1 -41
-8 -65 -8 -20 -18 -65 -22 -100 -4 -34 -13 -65 -20 -70 -7 -4 -16 -17 -19 -29
-7 -21 -4 -23 28 -23 20 0 36 3 36 8 0 41 24 179 33 190 6 8 15 69 19 136 16
246 24 324 35 338 7 8 15 34 19 58 3 25 14 51 23 58 14 11 13 13 -7 18 -30 8
-28 22 4 35 34 12 61 4 69 -22 4 -12 16 -30 26 -40 10 -10 19 -26 19 -34 0 -8
6 -15 14 -15 7 0 25 -9 38 -20 14 -10 28 -16 32 -13 3 4 12 0 19 -9 17 -21 54
-29 82 -16 20 9 28 5 64 -31 26 -26 50 -41 66 -41 16 0 25 -6 25 -15 0 -10
-10 -15 -31 -15 -22 0 -40 10 -64 36 -38 40 -65 40 -65 -1 0 -18 5 -25 19 -25
10 0 48 -16 85 -35 37 -19 78 -35 90 -35 13 0 31 -9 41 -20 10 -11 24 -20 31
-20 8 0 19 -9 26 -20 7 -11 18 -20 25 -20 7 0 22 -9 32 -19 11 -11 34 -27 52
-36 17 -9 33 -25 36 -35 3 -10 12 -21 20 -24 11 -5 12 -10 4 -19 -8 -11 -3
-17 25 -30 19 -9 41 -17 49 -17 8 0 15 -9 15 -19 0 -12 11 -25 28 -33 34 -17
37 -52 5 -56 -14 -2 -23 -10 -23 -20 0 -10 -10 -23 -21 -30 -15 -9 -18 -17
-11 -24 13 -13 32 -2 32 18 0 8 10 14 26 14 15 0 32 7 38 16 15 20 38 10 53
-21 12 -28 -3 -35 -25 -13 -8 8 -15 9 -22 2 -7 -7 6 -25 42 -57 29 -26 66 -59
81 -74 27 -26 30 -26 42 -10 16 23 25 22 25 -3 0 -11 -4 -20 -10 -20 -13 0
-13 -57 -1 -65 5 -3 16 4 24 16 10 14 17 17 22 9 4 -7 2 -17 -4 -23 -6 -6 -11
-21 -11 -34 0 -32 45 -33 55 0 3 12 9 17 11 10 3 -7 1 -21 -5 -32 -15 -27 -14
-91 1 -91 7 0 23 12 36 28 l23 27 -5 -30 c-4 -16 -9 -45 -13 -64 -4 -23 -2
-36 8 -42 22 -14 29 -11 29 11 0 11 5 20 10 20 13 0 13 -27 0 -35 -16 -10 -12
-55 5 -55 8 0 15 9 15 20 0 11 7 20 15 20 18 0 19 -14 3 -39 -9 -15 -8 -28 6
-65 10 -25 24 -46 32 -46 8 0 14 -4 14 -9 0 -5 8 -8 17 -7 10 0 21 -10 26 -25
8 -21 6 -30 -11 -47 -16 -16 -19 -27 -14 -43 12 -30 26 -27 32 7 7 39 24 37
28 -4 2 -22 -2 -34 -12 -38 -20 -8 -22 -64 -2 -64 7 0 16 9 19 21 10 36 30 11
22 -28 -6 -36 1 -73 15 -73 4 0 13 14 19 30 12 35 17 37 24 10 3 -13 -2 -28
-15 -40 -20 -18 -18 -60 3 -60 5 0 9 -13 9 -30 0 -17 9 -39 20 -50 15 -15 20
-33 20 -69 0 -28 -5 -53 -11 -56 -6 -5 -4 -11 7 -19 13 -10 15 -21 9 -54 -9
-53 -8 -56 3 -60 6 -2 13 11 17 27 7 35 16 38 35 16 11 -13 11 -29 0 -87 -12
-68 -11 -72 8 -87 16 -12 21 -27 20 -61 0 -26 9 -64 21 -90 11 -25 21 -54 21
-66 0 -11 5 -25 11 -31 7 -7 7 -21 1 -44 l-10 -34 -7 43 c-10 55 -35 58 -35 3
0 -48 8 -71 25 -71 9 0 14 -33 19 -117 11 -202 10 -247 -2 -251 -7 -2 -12 -21
-12 -41 0 -21 -7 -60 -15 -87 -8 -27 -15 -60 -15 -73 0 -14 -8 -33 -17 -43
-15 -16 -15 -25 -3 -81 22 -109 24 -146 6 -153 -10 -4 -16 -18 -16 -39 0 -18
-7 -38 -15 -45 -9 -7 -15 -35 -17 -78 -3 -71 -20 -91 -36 -45 -9 25 -11 26
-17 9 -5 -11 -3 -27 3 -37 14 -22 15 -62 3 -87 -45 -92 -71 -157 -71 -182 0
-16 -6 -47 -14 -67 -8 -21 -17 -49 -20 -63 -7 -34 -72 -85 -90 -71 -11 9 -14
0 -19 -46 -4 -33 -2 -62 4 -69 6 -7 9 -25 7 -41 -2 -21 -8 -28 -26 -28 -14 0
-29 -10 -40 -27 -15 -26 -15 -28 2 -41 11 -8 16 -19 12 -25 -11 -19 -26 -14
-26 8 0 24 -8 25 -38 4 -17 -12 -22 -25 -22 -59 0 -24 5 -47 10 -50 6 -3 10
-16 9 -28 l0 -22 -11 23 c-15 29 -38 28 -38 -2 0 -38 -10 -56 -32 -56 -18 0
-19 -4 -14 -35 4 -22 3 -35 -4 -35 -5 0 -10 5 -10 10 0 6 -7 10 -15 10 -18 0
-19 -5 -3 -29 6 -10 8 -26 4 -36 -6 -17 -8 -17 -27 4 -26 28 -43 23 -47 -15
-2 -16 -10 -33 -18 -37 -8 -4 -14 -21 -14 -37 0 -18 -7 -33 -19 -39 -10 -6
-21 -23 -24 -39 -4 -17 -16 -33 -31 -40 -14 -6 -26 -18 -26 -25 0 -7 -11 -24
-25 -37 -14 -13 -25 -34 -25 -47 0 -30 -27 -41 -43 -19 -10 14 -18 15 -40 7
-30 -11 -37 -45 -12 -55 25 -9 18 -43 -10 -50 -14 -4 -31 -18 -37 -31 -6 -14
-20 -27 -30 -31 -11 -3 -23 -17 -29 -31 -7 -20 -15 -24 -34 -21 -16 4 -25 1
-25 -8 0 -18 -83 -72 -124 -80 -22 -4 -38 -13 -41 -25 -4 -11 -16 -19 -29 -19
-24 0 -46 -17 -46 -36 0 -16 70 5 77 23 6 15 39 17 48 3 3 -6 -4 -14 -17 -19
-13 -5 -30 -16 -38 -26 -15 -18 -71 -50 -82 -47 -14 4 -219 -106 -206 -111 7
-2 1 -2 -13 0 -15 2 -31 -2 -39 -12 -7 -8 -27 -15 -45 -15 -41 0 -49 -9 -29
-31 16 -18 14 -18 -52 -12 l-69 6 19 -21 c18 -21 18 -22 -8 -32 -15 -5 -34
-10 -41 -10 -8 0 -37 -9 -65 -20 -69 -27 -93 -27 -85 1 6 19 4 21 -16 16 -13
-4 -32 -7 -42 -7 -10 0 -22 -11 -26 -23 -8 -20 -19 -25 -73 -31 -35 -4 -99
-13 -143 -19 -44 -6 -175 -10 -294 -9 -182 2 -222 5 -272 22 -32 11 -78 20
-102 20 -45 0 -174 37 -198 57 -8 6 -24 14 -37 17 -12 4 -20 11 -17 15 8 14
-47 33 -59 21 -5 -5 -20 -10 -33 -10 -23 0 -23 1 -7 26 11 16 24 24 35 21 10
-3 23 1 30 9 16 19 -15 30 -44 16 -12 -6 -33 -14 -47 -18 -14 -4 -28 -11 -31
-17 -4 -5 -14 -7 -23 -4 -12 5 -15 14 -10 31 5 21 0 27 -47 50 -29 15 -58 25
-65 22 -7 -3 -22 4 -35 15 -12 10 -30 19 -41 19 -10 0 -18 7 -18 15 0 9 -9 15
-24 15 -14 0 -28 5 -31 11 -4 5 -18 14 -32 20 -13 5 -21 13 -18 19 9 15 34 12
51 -5 9 -8 24 -15 35 -15 11 0 19 -7 19 -16 0 -10 7 -14 22 -12 28 4 36 28 9
28 -11 0 -35 14 -53 30 -29 27 -39 30 -83 28 -40 -2 -57 2 -83 22 -39 29 -40
38 -4 42 16 2 27 9 27 18 0 21 -39 24 -58 6 -19 -20 -57 -21 -57 -3 0 8 9 22
20 32 11 10 20 22 20 27 0 11 -48 10 -55 -2 -8 -13 -45 -13 -45 -1 0 16 50 70
71 76 10 4 17 11 14 16 -11 18 -44 9 -77 -21 -18 -17 -36 -30 -40 -30 -4 0
-14 13 -23 29 -8 17 -31 42 -50 57 -19 14 -35 32 -35 39 0 7 -7 19 -17 26 -9
8 -22 29 -30 47 -10 24 -20 32 -38 32 -19 0 -25 -5 -25 -23 0 -26 34 -93 62
-122 10 -11 40 -45 66 -76 26 -31 85 -88 132 -127 47 -39 111 -95 142 -124 31
-29 59 -52 62 -50 3 1 15 -7 26 -18 11 -11 28 -20 37 -20 10 0 31 -14 47 -30
16 -17 33 -30 38 -30 12 0 86 -36 123 -60 17 -11 41 -24 55 -30 14 -5 34 -15
45 -22 52 -31 102 -55 125 -61 14 -3 65 -19 113 -36 48 -17 98 -31 110 -31 12
0 31 -7 41 -15 11 -8 40 -15 64 -15 24 0 53 -5 65 -12 12 -7 83 -16 157 -20
74 -5 144 -9 155 -10 67 -4 348 16 392 28 28 8 66 14 85 14 18 0 42 7 52 15
11 8 37 15 57 15 21 0 44 6 51 14 8 7 41 21 73 30 56 15 114 39 175 72 31 17
53 27 110 54 82 37 173 89 199 113 28 25 48 40 124 88 26 17 47 35 47 40 0 5
17 20 38 33 38 25 172 149 172 159 0 7 116 124 128 129 4 2 23 26 42 53 19 28
39 55 45 60 6 6 29 32 51 60 40 51 61 75 94 110 11 12 20 29 20 38 0 10 7 20
16 24 8 3 22 23 31 44 8 22 19 39 23 39 5 0 12 9 15 20 3 11 13 20 21 20 8 0
14 9 14 19 0 11 5 23 10 26 6 3 25 39 44 79 19 39 41 78 50 85 9 7 16 22 16
32 0 10 4 21 10 24 5 3 32 53 59 110 28 56 55 106 60 110 6 3 11 16 11 29 0
12 7 31 15 42 8 10 15 28 15 39 0 11 9 37 20 58 11 20 20 46 20 56 0 11 14 49
30 86 17 37 30 79 30 95 0 15 7 33 15 40 8 7 15 27 15 45 0 18 7 49 15 68 8
20 15 47 15 61 0 13 7 37 15 52 8 16 15 52 15 80 0 28 7 68 15 87 9 22 15 68
15 114 0 43 7 97 15 121 19 55 18 564 -2 598 -7 12 -13 65 -14 123 -1 77 -5
104 -15 108 -9 3 -14 22 -14 57 -1 28 -7 62 -15 76 -8 14 -14 47 -15 73 0 33
-5 49 -15 53 -10 4 -15 19 -15 43 0 20 -7 49 -15 65 -8 15 -15 34 -15 41 0 30
-43 149 -91 250 -16 33 -29 69 -29 79 0 10 -9 29 -20 43 -11 14 -20 31 -20 38
0 13 -68 138 -125 229 -21 33 -42 75 -47 93 -5 18 -13 33 -18 33 -5 0 -17 16
-26 35 -9 19 -23 35 -30 35 -8 0 -14 7 -14 16 0 14 -30 56 -75 105 -8 9 -15
22 -15 29 0 7 -23 35 -50 61 -28 26 -50 52 -50 59 0 6 -27 38 -60 70 -33 32
-60 63 -60 67 0 4 -16 19 -35 32 -19 13 -35 29 -35 36 0 8 -23 33 -51 57 -28
24 -77 69 -109 101 -33 31 -66 57 -74 57 -8 0 -19 6 -23 13 -9 15 -109 92
-159 122 -18 11 -44 30 -58 43 -15 12 -30 22 -35 22 -4 0 -19 8 -32 19 -13 10
-62 38 -108 62 -46 24 -85 49 -88 56 -3 7 -17 13 -33 13 -15 0 -37 9 -50 20
-13 11 -30 20 -39 20 -9 0 -25 7 -35 15 -11 8 -29 15 -41 15 -12 0 -26 5 -33
12 -14 14 -76 38 -117 45 -16 3 -39 12 -50 19 -11 8 -33 14 -50 14 -16 0 -39
7 -49 15 -11 8 -34 15 -50 15 -17 0 -40 7 -50 15 -11 8 -37 15 -59 15 -21 0
-47 5 -58 10 -10 6 -49 13 -87 16 -37 4 -86 12 -110 20 -65 21 -800 20 -828
-1z m-654 -246 c0 -5 -18 -9 -40 -9 -48 0 -54 17 -7 22 36 4 47 1 47 -13z
m2191 -15 c12 -14 11 -16 -5 -13 -11 2 -21 10 -24 17 -5 17 13 15 29 -4z
m1789 -2248 c0 -8 -4 -18 -10 -21 -5 -3 -10 3 -10 14 0 12 5 21 10 21 6 0 10
-6 10 -14z m10 -1010 c0 -33 -10 -57 -21 -50 -16 9 -11 74 6 74 9 0 15 -9 15
-24z m-280 -943 c0 -12 -35 -82 -41 -83 -9 0 -19 42 -13 52 3 4 12 8 20 8 8 0
14 7 14 15 0 8 5 15 10 15 6 0 10 -3 10 -7z m-154 -310 c-11 -11 -19 6 -11 24
8 17 8 17 12 0 3 -10 2 -21 -1 -24z"/>
<path d="M7730 8171 c0 -16 20 -23 46 -17 36 9 29 26 -11 26 -19 0 -35 -4 -35
-9z"/>
<path d="M7735 8081 c-3 -5 -1 -12 4 -15 13 -8 71 5 71 15 0 12 -67 11 -75 0z"/>
<path d="M7670 8020 c0 -11 7 -20 15 -20 8 0 15 9 15 20 0 11 -7 20 -15 20 -8
0 -15 -9 -15 -20z"/>
<path d="M2187 8024 c-11 -12 3 -24 29 -24 15 0 24 -6 24 -15 0 -11 12 -15 45
-15 33 0 45 4 45 15 0 11 -12 15 -44 15 -30 0 -46 5 -50 15 -5 15 -37 21 -49
9z"/>
<path d="M80 7955 c0 -8 7 -15 15 -15 8 0 15 7 15 15 0 8 -7 15 -15 15 -8 0
-15 -7 -15 -15z"/>
<path d="M7421 7861 c-7 -5 -12 -13 -10 -18 2 -5 12 -1 22 9 18 19 12 24 -12
9z"/>
<path d="M7293 7835 c-3 -9 -3 -18 -1 -21 7 -7 58 17 58 28 0 15 -50 8 -57 -7z"/>
<path d="M6050 7794 c0 -31 23 -28 28 4 2 15 -2 22 -12 22 -11 0 -16 -9 -16
-26z"/>
<path d="M2692 7763 c2 -12 14 -19 33 -21 l30 -3 -25 20 c-31 25 -42 26 -38 4z"/>
<path d="M5982 7728 c-20 -20 -14 -38 13 -38 20 0 25 5 25 25 0 27 -18 33 -38
13z"/>
<path d="M5923 7666 c-25 -12 -32 -46 -10 -46 13 0 45 47 36 53 -2 2 -14 -2
-26 -7z"/>
<path d="M8990 7595 c-30 -8 -89 -15 -130 -15 -45 0 -85 -6 -100 -15 -14 -8
-46 -14 -71 -15 -29 0 -51 -6 -59 -15 -7 -8 -27 -15 -44 -15 -17 -1 -42 -7
-56 -15 -14 -8 -35 -14 -46 -15 -12 0 -27 -7 -34 -15 -7 -8 -21 -15 -32 -15
-11 0 -32 -6 -46 -14 -15 -7 -72 -35 -127 -62 -55 -26 -102 -51 -105 -54 -3
-3 -34 -23 -70 -45 -36 -21 -71 -45 -78 -52 -7 -7 -17 -13 -21 -13 -11 0 -108
-73 -169 -128 -108 -95 -372 -364 -372 -379 0 -3 -39 -58 -87 -122 -49 -64
-93 -126 -100 -138 -6 -12 -27 -43 -47 -69 -20 -26 -36 -53 -36 -61 0 -9 -12
-32 -27 -52 -34 -44 -51 -71 -59 -91 -3 -8 -9 -22 -14 -30 -5 -8 -19 -35 -30
-60 -12 -25 -25 -52 -30 -60 -28 -49 -80 -158 -80 -169 0 -7 -6 -25 -14 -39
-26 -50 -46 -100 -46 -119 0 -10 -7 -27 -15 -37 -8 -11 -15 -29 -15 -41 0 -12
-7 -30 -15 -41 -8 -10 -15 -29 -15 -42 0 -13 -7 -30 -15 -38 -8 -9 -15 -33
-15 -53 0 -22 -6 -44 -15 -51 -10 -8 -15 -30 -15 -60 0 -27 -5 -50 -11 -52 -6
-2 -13 -33 -16 -68 -3 -36 -12 -74 -19 -85 -8 -11 -14 -46 -14 -85 0 -36 -8
-85 -17 -110 -14 -39 -16 -100 -17 -437 0 -356 1 -394 17 -411 13 -14 17 -37
17 -98 1 -50 6 -88 15 -104 8 -14 14 -46 15 -71 0 -25 7 -54 15 -65 8 -10 15
-36 15 -56 0 -20 6 -43 14 -50 7 -8 16 -27 19 -43 11 -56 53 -189 68 -215 5
-8 12 -22 15 -30 3 -8 11 -26 18 -40 8 -14 16 -41 20 -62 4 -20 13 -39 21 -42
8 -3 15 -18 15 -34 0 -15 4 -32 9 -37 9 -10 39 -63 98 -175 19 -36 40 -69 47
-75 6 -5 19 -28 29 -50 10 -21 32 -56 48 -76 16 -20 29 -44 29 -52 0 -9 6 -20
13 -24 7 -4 35 -36 62 -71 116 -148 154 -194 224 -273 41 -46 84 -92 95 -102
12 -10 49 -43 83 -75 34 -31 78 -70 98 -87 20 -16 65 -56 98 -87 34 -32 67
-58 73 -58 6 0 46 -24 88 -52 43 -29 87 -58 98 -65 12 -6 25 -19 30 -27 5 -9
18 -16 28 -16 11 0 43 -15 72 -33 73 -46 197 -105 236 -113 18 -4 39 -15 46
-25 7 -10 28 -22 47 -25 19 -4 39 -11 45 -15 6 -5 31 -13 55 -18 46 -9 91 -24
147 -47 18 -8 45 -14 60 -14 15 -1 38 -7 52 -15 14 -8 44 -14 67 -15 23 0 54
-5 70 -12 15 -6 62 -15 103 -19 41 -4 95 -12 120 -18 25 -5 109 -10 188 -11
l142 0 0 50 c0 37 -4 50 -14 50 -8 0 -18 -4 -21 -10 -18 -29 -459 12 -478 45
-4 8 -17 15 -29 15 -15 0 -19 -5 -15 -20 6 -23 5 -24 -65 -9 -64 14 -110 39
-104 56 3 7 -1 13 -8 13 -8 0 -16 -7 -20 -15 -3 -10 -19 -15 -48 -15 -41 0
-44 14 -5 22 31 5 19 23 -17 26 -19 2 -40 10 -46 18 -7 8 -22 14 -35 14 -12 0
-32 9 -45 20 -27 23 -41 25 -59 7 -11 -9 -14 -9 -18 1 -3 8 -26 12 -64 12 -46
0 -59 3 -59 15 0 8 8 15 18 16 9 0 -7 11 -36 24 -29 13 -59 22 -68 18 -8 -3
-25 3 -37 14 -12 11 -35 23 -51 27 -15 4 -30 15 -33 25 -3 14 -18 21 -49 26
-47 7 -63 20 -45 38 16 16 13 47 -5 47 -9 0 -18 -9 -21 -20 -6 -24 -26 -26
-43 -5 -7 8 -19 15 -26 15 -8 0 -16 12 -19 28 -10 46 -20 56 -71 73 -39 12
-53 23 -69 52 -23 42 -31 45 -40 17 -3 -11 -10 -20 -15 -20 -16 0 -29 35 -19
52 10 18 -11 31 -34 22 -8 -3 -21 9 -31 28 -10 18 -35 45 -56 60 l-38 26 -21
-21 -21 -21 0 25 c0 14 4 29 10 35 6 6 4 24 -4 49 -15 42 -7 65 20 65 25 0 15
28 -13 38 -27 10 -27 11 -6 17 12 4 25 15 28 25 3 10 12 21 20 24 8 3 15 16
15 28 0 13 9 29 20 36 11 7 20 18 20 26 0 8 7 16 15 20 9 3 15 18 15 35 0 16
10 42 24 58 29 35 86 139 86 158 0 7 9 17 20 20 14 4 19 12 15 24 -3 11 5 26
21 42 14 13 39 50 55 82 30 58 75 123 130 186 37 43 36 57 -2 112 -16 24 -42
62 -56 84 -14 22 -39 59 -55 82 -15 23 -28 46 -28 52 0 5 -13 30 -30 54 -16
25 -30 48 -30 52 0 5 -11 31 -24 60 -28 58 -54 126 -65 170 -4 17 -13 40 -19
52 -7 12 -12 35 -12 50 0 16 -7 38 -15 49 -8 10 -15 41 -15 69 0 28 -6 60 -14
71 -14 19 -23 120 -28 309 -3 112 14 340 28 384 8 25 14 63 14 85 0 23 7 50
15 60 8 11 15 34 15 50 1 17 7 42 15 56 8 14 14 39 15 56 0 16 7 39 15 50 8
10 15 33 15 50 0 19 6 34 15 38 8 3 15 12 15 21 0 14 49 129 71 165 5 8 12 22
15 30 13 31 67 137 90 175 13 22 28 49 34 60 5 11 28 45 50 75 23 30 48 66 58
80 9 14 22 29 29 33 7 4 13 14 13 20 0 7 13 27 29 45 16 17 32 40 35 50 4 10
20 29 38 42 24 18 35 21 48 12 17 -11 30 -7 30 9 0 4 -12 14 -27 21 -17 8 -30
25 -35 46 -12 44 -28 41 -28 -5 -1 -39 -5 -44 -92 -100 -15 -10 -29 -26 -32
-36 -3 -15 -11 -16 -45 -11 l-41 7 0 -42 c0 -29 -5 -43 -16 -48 -22 -8 -48 9
-52 36 -6 38 -17 22 -19 -29 -3 -49 -2 -50 26 -50 17 0 33 -5 37 -11 9 -16
-47 -60 -70 -55 -17 4 -18 0 -13 -38 5 -36 3 -47 -15 -62 -11 -11 -32 -44 -47
-74 -19 -39 -33 -56 -49 -58 -18 -3 -22 -10 -22 -36 0 -17 -5 -37 -10 -42 -6
-6 -19 -44 -31 -84 -22 -82 -34 -102 -57 -98 -20 4 -35 -61 -28 -117 3 -30 -1
-49 -17 -74 -12 -20 -21 -49 -22 -66 0 -23 -5 -31 -22 -33 -17 -3 -23 -12 -28
-46 -4 -24 -2 -60 4 -82 10 -36 9 -41 -13 -59 -13 -11 -26 -33 -29 -50 -4 -16
-4 -24 -1 -17 3 6 12 12 20 12 19 0 18 -49 -1 -56 -25 -10 -38 -43 -24 -60 9
-11 9 -21 -1 -44 -7 -16 -9 -37 -6 -46 4 -9 0 -25 -9 -34 -14 -15 -14 -20 0
-46 16 -32 19 -80 6 -134 -12 -55 38 -256 77 -302 17 -20 9 -108 -14 -163 -12
-29 -12 -35 2 -46 13 -10 17 -10 24 0 4 8 13 10 19 7 14 -9 15 -36 1 -36 -5 0
-10 -9 -10 -20 0 -15 6 -19 23 -17 17 1 23 -4 25 -25 2 -14 10 -32 18 -38 18
-16 18 -69 -1 -94 -8 -11 -15 -26 -15 -33 0 -18 27 -16 34 2 7 19 26 20 26 0
0 -8 8 -19 19 -24 12 -7 20 -26 24 -62 4 -33 14 -59 27 -71 24 -22 26 -41 5
-58 -18 -15 -20 -36 -4 -45 6 -4 13 2 16 14 5 21 36 37 53 26 5 -3 10 -15 10
-26 0 -10 5 -19 10 -19 6 0 10 -6 10 -14 0 -7 11 -30 25 -50 29 -43 31 -67 9
-102 -9 -13 -14 -27 -11 -31 4 -3 -9 -24 -27 -47 -18 -22 -38 -57 -45 -76 -6
-20 -21 -40 -33 -45 -17 -7 -24 -21 -28 -49 -5 -41 -16 -51 -64 -61 -27 -6
-28 -7 -21 -52 6 -43 4 -48 -29 -82 -36 -37 -60 -86 -50 -102 3 -5 -4 -9 -16
-9 -19 0 -21 -4 -16 -47 5 -42 5 -44 -5 -20 -12 29 -29 28 -29 -3 0 -10 -7
-26 -16 -35 -9 -9 -20 -30 -23 -47 -9 -44 -27 -46 -35 -3 -4 19 -11 35 -16 35
-16 0 -11 -60 5 -66 8 -4 15 -15 15 -25 0 -10 5 -19 10 -19 6 0 10 -4 10 -10
0 -14 -32 -12 -50 3 -8 7 -21 24 -27 40 -7 15 -19 27 -28 27 -9 0 -15 9 -15
21 0 12 -12 30 -26 42 -15 11 -33 35 -40 54 -8 18 -21 33 -29 33 -8 0 -15 7
-15 15 0 8 -9 15 -20 15 -11 0 -20 -5 -20 -11 0 -6 9 -13 20 -16 14 -4 20 -14
20 -34 0 -17 5 -29 13 -29 12 0 47 -53 47 -71 0 -15 -49 24 -50 38 0 7 -13 25
-30 40 -16 14 -30 32 -30 39 0 7 -8 17 -17 23 -16 8 -15 12 11 36 17 16 26 32
22 41 -3 9 -6 18 -6 20 0 2 -9 4 -20 4 -13 0 -24 -10 -30 -26 -9 -22 -13 -24
-25 -14 -16 13 -21 50 -6 50 5 0 15 15 22 33 7 17 20 37 29 44 8 6 11 15 7 20
-5 4 -14 1 -20 -8 -14 -19 -98 -61 -106 -54 -2 3 1 11 7 17 7 7 12 24 12 39 0
21 6 28 22 31 12 2 23 9 26 16 6 18 -37 15 -44 -3 -4 -8 -15 -15 -25 -15 -12
0 -19 -7 -19 -19 0 -28 -17 -35 -23 -10 -3 12 0 22 8 25 7 3 17 24 20 47 4 23
12 48 18 55 5 7 7 16 3 19 -4 4 -10 3 -14 -3 -4 -6 -18 -17 -31 -24 -19 -10
-25 -10 -32 1 -13 21 -11 45 6 59 22 18 18 47 -7 53 -29 8 -35 1 -20 -23 17
-27 15 -40 -5 -40 -11 0 -26 17 -38 43 -11 23 -27 47 -35 54 -12 10 -13 15 -2
32 16 27 15 31 -6 31 -26 0 -42 20 -42 53 0 17 -7 35 -16 42 -14 10 -14 15 -4
32 18 28 7 53 -19 46 -16 -4 -21 -1 -21 15 0 12 8 25 18 31 16 9 16 11 1 23
-17 14 -28 44 -49 141 -8 33 -19 57 -26 57 -20 0 -25 16 -13 44 10 21 8 40
-16 110 -15 47 -33 90 -41 97 -9 7 -12 24 -8 53 4 27 1 52 -6 67 -7 13 -17 39
-22 59 -13 52 -23 344 -21 595 1 121 2 264 2 318 1 57 5 97 11 97 6 0 10 -13
10 -29 0 -39 9 -61 26 -61 17 0 17 1 -1 97 -20 104 -19 121 10 178 18 36 21
52 14 62 -15 18 23 97 39 81 5 -5 15 -7 21 -4 14 9 14 83 1 91 -5 3 -10 15
-10 26 0 13 7 19 24 19 16 0 26 7 30 23 9 36 7 40 -19 35 -21 -4 -25 -1 -25
18 0 23 30 41 49 29 17 -10 23 16 7 33 -9 11 -13 27 -9 40 8 34 23 26 23 -13
0 -37 8 -43 28 -23 17 17 15 63 -3 78 -19 16 -19 36 1 44 10 4 15 17 14 38 -3
51 0 55 16 25 19 -35 31 -27 45 29 7 25 20 49 30 55 25 13 27 84 2 98 -16 8
-15 12 10 37 30 30 49 25 28 -7 -16 -27 -9 -34 18 -17 22 13 28 42 11 53 -19
12 -11 45 10 45 15 0 20 7 20 26 0 15 13 41 30 61 21 23 30 44 30 68 0 20 8
43 18 53 9 10 30 36 45 58 15 23 40 47 55 55 35 17 98 82 107 109 3 11 17 23
30 26 34 8 40 43 9 54 -26 10 -31 29 -12 48 19 19 38 14 48 -14 11 -27 33 -28
38 -2 2 9 -6 18 -18 21 -30 8 -27 47 5 47 13 0 28 -7 33 -17 7 -11 15 -14 28
-9 18 8 18 8 -2 16 -12 5 -24 15 -27 24 -4 9 -14 16 -23 16 -20 0 -13 24 9 28
10 2 17 -3 17 -12 0 -9 7 -16 15 -16 7 0 18 -7 23 -17 7 -11 15 -14 28 -9 18
7 18 9 -3 23 -13 9 -23 20 -23 26 0 5 -7 15 -17 22 -9 7 -13 17 -9 23 10 16
26 15 26 -1 0 -17 47 -40 55 -27 3 5 1 19 -5 30 -12 23 -6 40 14 40 27 0 66
41 66 70 0 31 24 46 54 34 9 -3 16 -1 16 5 0 6 -7 11 -15 11 -18 0 -19 12 -3
28 9 9 18 4 39 -19 32 -36 57 -31 33 7 -9 13 -23 24 -30 24 -19 0 -18 19 2 27
10 4 22 -1 29 -10 7 -10 20 -17 29 -17 12 0 16 10 16 40 0 32 4 40 18 40 11 0
27 -9 37 -20 l19 -21 12 23 c8 15 9 29 3 41 -11 19 -4 37 14 37 6 0 21 -12 33
-27 12 -16 26 -25 30 -21 4 4 1 14 -5 22 -16 19 -4 39 19 33 10 -3 29 6 44 20
27 24 27 43 0 43 -8 0 -14 5 -14 10 0 15 54 12 76 -5 29 -22 64 -19 64 5 0 13
-7 20 -18 20 -26 0 -34 11 -21 27 15 18 46 17 57 -3 5 -9 24 -16 43 -17 28 -2
35 2 37 20 3 17 -3 24 -22 29 -33 8 -33 22 -2 30 16 4 34 0 48 -10 12 -9 37
-16 55 -16 28 0 33 4 33 24 0 17 -7 26 -25 30 -14 4 -25 11 -25 16 0 6 11 10
25 10 16 0 25 -6 25 -15 0 -10 10 -15 29 -15 42 0 61 10 61 31 0 10 3 19 8 20
4 0 25 2 47 4 22 2 72 7 112 11 43 4 77 12 84 20 10 12 15 12 30 -2 18 -16 20
-16 37 -1 23 21 200 25 220 5 10 -9 16 -9 28 4 13 12 29 15 75 11 48 -5 63 -2
79 12 19 17 50 15 50 -4 0 -5 -9 -13 -20 -16 -47 -15 -13 -25 83 -25 56 0 126
-3 155 -6 l52 -7 0 52 0 51 -40 0 c-22 0 -57 7 -77 15 -19 8 -63 15 -97 15
-34 0 -88 7 -119 15 -72 19 -232 18 -307 0z m158 -63 c2 -7 -6 -12 -17 -12
-21 0 -27 11 -14 24 9 9 26 2 31 -12z m350 -31 c11 -7 10 -10 -3 -15 -21 -8
-95 4 -95 15 0 11 81 11 98 0z m-1348 -270 c0 -11 -40 -22 -52 -15 -5 3 -6 10
-3 15 8 12 55 12 55 0z m-686 -616 c3 -9 -1 -18 -10 -22 -19 -7 -26 0 -18 21
8 20 20 21 28 1z m-34 -55 c0 -11 -7 -23 -15 -26 -8 -4 -15 -12 -15 -20 0 -8
-9 -14 -20 -14 -26 0 -26 20 0 27 11 3 23 16 26 29 7 29 24 32 24 4z m-640
-2787 c0 -22 -2 -25 -10 -13 -13 20 -13 40 0 40 6 0 10 -12 10 -27z m40 -69
c0 -8 -4 -14 -10 -14 -5 0 -10 9 -10 21 0 11 5 17 10 14 6 -3 10 -13 10 -21z
m680 -1259 c0 -26 -14 -33 -25 -15 -9 14 1 40 15 40 5 0 10 -11 10 -25z m53
-49 c17 -13 23 -36 10 -36 -5 0 -19 12 -32 25 -25 27 -10 35 22 11z m1086
-773 c2 -2 -5 -3 -17 -3 -14 0 -22 6 -22 16 0 14 3 15 18 3 9 -7 19 -15 21
-16z m91 -23 c0 -5 -14 -10 -31 -10 -17 0 -28 4 -24 10 3 6 17 10 31 10 13 0
24 -4 24 -10z"/>
<path d="M3070 7565 c0 -10 7 -15 18 -13 21 4 19 22 -2 26 -10 2 -16 -3 -16
-13z"/>
<path d="M5930 7529 c-13 -24 -8 -34 15 -26 16 7 21 47 5 47 -5 0 -14 -9 -20
-21z"/>
<path d="M5875 7481 c-3 -5 -1 -12 5 -16 12 -7 30 2 30 16 0 12 -27 12 -35 0z"/>
<path d="M3185 7470 c3 -5 15 -10 26 -10 10 0 19 5 19 10 0 6 -12 10 -26 10
-14 0 -23 -4 -19 -10z"/>
<path d="M6927 7463 c-17 -16 -5 -33 23 -33 23 0 30 4 30 20 0 14 -7 20 -23
20 -13 0 -27 -3 -30 -7z"/>
<path d="M3326 7361 c-7 -10 22 -51 36 -51 15 0 8 27 -11 44 -12 11 -21 13
-25 7z"/>
<path d="M969 7289 c-101 -15 -204 -32 -229 -39 -25 -6 -72 -17 -105 -22 -83
-14 -96 -20 -61 -27 17 -3 29 -10 29 -16 -3 -22 -73 -26 -73 -4 0 5 -13 9 -29
9 -16 0 -31 6 -35 15 -6 17 -56 21 -56 5 0 -5 7 -10 15 -10 8 0 23 -9 32 -20
10 -11 25 -20 35 -20 10 0 18 -7 18 -15 0 -9 -9 -15 -24 -15 -13 0 -26 7 -30
15 -3 8 -12 15 -20 15 -8 0 -21 -7 -30 -15 -8 -8 -23 -15 -34 -15 -11 0 -22 7
-26 15 -3 8 -10 15 -16 15 -6 0 -18 7 -27 15 -16 17 -33 16 -36 0 -1 -6 8 -11
21 -13 12 -2 22 -7 22 -11 0 -5 12 -21 27 -37 22 -24 24 -30 10 -32 -8 -2 -25
6 -37 18 -23 23 -43 22 -48 -3 -2 -11 6 -19 23 -23 29 -7 29 -27 -1 -32 -10
-2 -24 -10 -31 -19 -9 -12 -15 -12 -31 -2 -16 10 -26 9 -56 -9 -21 -12 -48
-22 -62 -22 -26 0 -47 -31 -26 -38 7 -2 12 -8 12 -13 0 -12 -37 -12 -45 1 -4
6 -13 5 -25 -2 -15 -9 -18 -25 -19 -80 0 -37 4 -68 9 -68 5 0 26 16 47 35 21
19 43 35 50 35 7 0 16 6 20 13 4 6 17 17 28 24 41 25 222 113 232 113 6 0 16
7 23 15 7 8 20 15 30 15 10 0 23 7 30 15 7 8 24 15 39 15 14 0 38 6 53 14 15
8 40 17 57 21 17 4 33 11 36 16 4 5 23 9 44 9 20 0 46 7 57 15 10 8 35 15 54
15 19 0 48 7 64 15 15 8 50 15 76 15 26 0 67 7 90 15 33 12 92 15 260 15 168
0 227 -3 260 -15 23 -8 64 -15 90 -15 26 0 61 -7 76 -15 16 -8 43 -15 59 -15
17 0 39 -7 49 -15 11 -8 36 -15 57 -15 24 0 39 -5 43 -15 3 -8 15 -15 26 -15
12 0 48 -13 82 -30 33 -16 69 -30 79 -30 10 0 19 -5 19 -10 0 -6 8 -14 18 -17
27 -10 146 -89 161 -107 7 -9 21 -16 31 -16 9 0 25 -9 34 -19 10 -11 28 -21
40 -23 13 -2 27 -16 35 -35 8 -18 22 -35 32 -38 28 -9 199 -184 199 -204 0 -5
12 -22 28 -38 57 -63 110 -129 125 -158 8 -17 25 -41 36 -54 12 -13 21 -32 21
-41 0 -10 6 -20 14 -23 8 -3 22 -27 31 -54 10 -26 24 -53 32 -59 7 -6 13 -16
13 -22 0 -15 40 -91 51 -98 5 -3 9 -15 9 -28 0 -12 7 -31 15 -42 8 -10 15 -28
15 -39 0 -11 7 -33 15 -49 8 -15 15 -41 15 -56 0 -16 7 -30 15 -34 10 -3 15
-19 15 -45 0 -22 5 -52 11 -68 39 -96 64 -591 34 -678 -8 -25 -15 -73 -15
-106 0 -44 -4 -61 -15 -65 -11 -4 -15 -21 -15 -58 -1 -28 -7 -62 -15 -76 -8
-14 -14 -42 -15 -62 0 -21 -4 -38 -10 -38 -5 0 -10 -8 -10 -18 0 -9 -9 -34
-20 -55 -11 -20 -20 -46 -20 -58 0 -18 -13 -50 -41 -99 -5 -8 -12 -22 -15 -30
-6 -16 -19 -45 -54 -122 -12 -27 -26 -50 -31 -54 -5 -3 -9 -14 -9 -25 0 -10
-4 -19 -10 -19 -5 0 -17 -17 -25 -37 -9 -21 -27 -49 -39 -63 -13 -14 -29 -36
-36 -50 -29 -56 -99 -157 -128 -182 -16 -14 -33 -41 -37 -58 -4 -17 -14 -34
-23 -37 -21 -8 -76 -62 -91 -91 -14 -26 -53 -29 -71 -7 -10 12 -10 24 -1 54 6
21 11 54 11 72 0 19 7 52 15 74 17 48 20 309 4 370 -6 22 -13 127 -16 233 -5
158 -9 196 -21 209 -13 12 -16 33 -13 93 2 60 -1 79 -13 89 -11 9 -16 30 -16
68 0 29 -7 70 -15 90 -8 19 -15 55 -15 80 0 30 -5 45 -15 49 -10 4 -15 19 -15
43 0 21 -7 46 -15 57 -8 10 -15 28 -15 39 0 11 -7 33 -15 49 -8 15 -15 41 -15
56 0 15 -7 33 -15 40 -8 7 -15 18 -15 24 0 6 -14 38 -30 71 -16 33 -30 66 -30
73 0 7 -9 20 -20 29 -11 10 -20 23 -20 29 0 7 -10 25 -23 41 -12 15 -28 39
-35 53 -11 22 -67 83 -132 145 -12 11 -44 44 -73 73 -28 28 -55 52 -60 52 -6
0 -33 18 -61 40 -111 88 -153 118 -174 124 -12 4 -27 16 -32 27 -6 10 -18 19
-28 19 -9 0 -40 15 -67 33 -28 18 -81 45 -120 61 -38 15 -85 34 -103 42 -18 8
-46 14 -63 14 -16 0 -42 6 -57 14 -33 17 -284 20 -333 4 -19 -5 -54 -14 -79
-18 -59 -11 -141 -40 -161 -57 -8 -7 -24 -13 -34 -13 -10 0 -26 -7 -35 -15 -8
-8 -43 -29 -75 -46 -33 -17 -69 -40 -80 -50 -79 -71 -101 -89 -109 -89 -11 0
-86 -77 -86 -89 0 -5 -15 -22 -34 -38 -18 -15 -41 -45 -51 -65 -9 -21 -21 -38
-26 -38 -5 0 -9 -11 -9 -25 0 -29 7 -31 29 -10 48 45 75 65 87 65 8 0 20 16
28 35 14 34 38 46 51 25 11 -17 25 -11 35 16 15 38 82 114 102 114 22 0 33 19
19 33 -28 28 -1 36 45 12 35 -18 55 -4 36 25 -17 28 -15 42 7 35 10 -3 24 1
31 10 7 8 23 15 35 15 12 0 28 6 34 14 7 8 30 17 51 21 22 4 50 15 64 26 27
21 47 24 62 9 7 -7 28 -7 65 1 112 25 375 11 413 -22 5 -4 16 -3 26 3 22 14
121 -24 163 -61 24 -22 31 -24 47 -13 25 15 26 1 4 -33 -15 -23 -15 -25 0 -31
10 -4 25 1 36 11 20 18 51 17 57 -1 2 -7 -8 -15 -22 -18 -39 -10 -25 -29 31
-44 46 -13 97 -36 198 -88 48 -25 53 -48 13 -52 -23 -3 -28 -8 -25 -25 2 -18
8 -21 33 -18 76 8 80 7 83 -22 4 -32 39 -58 72 -55 19 2 26 -4 34 -31 7 -23 6
-39 -2 -52 -10 -16 -9 -19 3 -19 8 0 15 9 15 20 0 28 26 25 47 -6 10 -14 26
-33 36 -42 9 -9 17 -31 17 -48 0 -23 -5 -34 -17 -37 -14 -3 -12 -6 10 -15 15
-7 30 -20 34 -29 3 -10 15 -30 25 -45 14 -20 17 -36 12 -67 -4 -28 -3 -41 5
-41 6 0 11 16 11 35 0 19 4 35 9 35 13 0 61 -107 61 -136 0 -13 12 -49 28 -80
19 -41 24 -58 15 -61 -7 -3 -13 -15 -13 -28 0 -12 -7 -28 -15 -35 -15 -13 -19
-58 -9 -97 12 -43 24 -23 24 37 0 33 4 60 9 60 5 0 11 10 13 23 5 37 23 19 25
-26 1 -23 4 -93 7 -155 4 -94 8 -117 25 -139 17 -20 21 -40 21 -93 0 -36 5
-91 10 -121 6 -30 12 -142 14 -249 3 -107 5 -198 5 -202 1 -3 11 -4 23 0 21 5
21 4 15 -93 -5 -73 -11 -101 -22 -108 -21 -11 -19 -27 4 -27 15 0 19 -10 25
-55 4 -37 2 -63 -6 -78 -11 -21 -13 -19 -24 28 -11 50 -11 50 -23 22 -16 -41
-14 -51 21 -103 28 -41 29 -48 15 -56 -24 -13 -21 -31 6 -43 12 -6 23 -20 25
-32 3 -21 9 -23 62 -23 l59 0 12 40 c14 46 26 51 39 14 12 -31 30 -23 30 14 0
31 9 46 31 54 9 4 30 28 47 55 45 69 50 74 75 68 21 -6 22 -2 23 49 0 47 4 59
32 88 60 61 69 73 76 100 3 15 15 32 26 38 11 6 20 20 20 30 0 15 7 20 25 20
14 0 25 6 25 13 0 7 9 29 20 50 11 20 20 48 20 61 0 43 23 130 41 157 10 14
21 37 24 52 4 15 10 27 14 27 16 0 31 53 31 106 0 38 4 56 14 60 8 3 17 27 21
55 4 27 12 49 19 49 15 0 46 52 46 78 0 11 3 22 8 24 4 2 15 26 24 53 16 47
16 54 1 95 -8 25 -17 83 -19 130 -7 186 -7 366 1 388 6 17 4 21 -6 17 -12 -4
-14 19 -11 130 2 114 0 136 -13 141 -8 3 -15 12 -15 19 0 8 -10 15 -22 17 -20
3 -24 10 -29 66 -4 38 -12 67 -21 75 -9 7 -19 25 -22 40 -5 19 -12 27 -21 23
-17 -6 -35 49 -35 109 0 57 -11 115 -21 115 -5 0 -9 -9 -9 -21 0 -29 -18 -59
-35 -59 -21 0 -19 39 5 85 24 46 26 75 5 75 -8 0 -19 -17 -25 -41 -13 -48 -34
-47 -38 2 -4 58 -11 77 -31 84 -15 4 -41 43 -41 61 0 2 11 9 25 14 33 12 32
34 -2 58 -19 13 -34 17 -48 11 -11 -4 -14 -8 -7 -8 6 -1 12 -13 12 -27 0 -31
-23 -28 -28 4 -2 12 -7 22 -12 22 -5 0 -7 14 -3 31 4 21 1 34 -8 40 -23 15
-37 10 -41 -13 -2 -12 -9 -23 -15 -26 -19 -6 -16 37 2 44 9 4 15 19 15 35 0
22 -5 29 -20 29 -10 0 -24 -9 -30 -20 -6 -11 -15 -20 -20 -20 -15 0 -12 28 4
37 8 4 16 19 18 33 2 17 10 26 26 28 22 3 30 26 13 36 -14 9 -41 -4 -41 -20 0
-8 -7 -14 -15 -14 -9 0 -20 -12 -26 -27 l-11 -28 -11 24 c-9 19 -9 25 1 29 14
4 16 42 2 42 -5 0 -10 -9 -10 -20 0 -11 -5 -20 -10 -20 -17 0 -24 31 -9 41 11
6 8 9 -8 9 -13 0 -23 5 -23 10 0 6 -14 19 -31 29 -17 10 -42 35 -55 54 -18 27
-34 38 -62 43 -53 9 -72 22 -72 46 0 11 -8 27 -17 34 -17 13 -17 15 1 29 21
16 15 45 -8 45 -9 0 -24 -9 -34 -20 -15 -16 -24 -19 -43 -11 -15 6 -18 10 -8
10 9 1 22 7 28 15 10 12 8 17 -7 25 -24 13 -62 3 -62 -15 0 -22 -26 -16 -57
12 -20 18 -22 22 -6 12 19 -10 25 -9 42 6 12 11 21 25 21 33 0 7 11 13 24 13
33 0 57 10 50 21 -9 15 -64 10 -70 -6 -4 -9 -19 -15 -40 -15 -22 0 -37 -6 -40
-15 -7 -17 -49 -20 -59 -5 -3 6 5 14 19 20 35 13 33 30 -4 30 -23 0 -30 4 -30
20 0 13 7 20 20 20 11 0 20 5 20 10 0 14 -18 12 -62 -7 -21 -9 -38 -23 -38
-31 0 -19 -24 -9 -28 11 -2 10 3 17 13 17 9 0 13 5 9 11 -4 8 -9 8 -17 0 -16
-16 -73 -13 -87 4 -7 8 -20 15 -29 15 -9 0 -21 4 -27 9 -11 12 -267 55 -414
71 -143 16 -264 10 -481 -21z m1093 -144 c0 -5 -5 -11 -11 -13 -6 -2 -11 4
-11 13 0 9 5 15 11 13 6 -2 11 -8 11 -13z m1168 -1411 c0 -73 -24 -70 -28 4
-2 42 0 52 12 52 13 0 16 -12 16 -56z m33 -768 c7 -41 -4 -88 -21 -94 -13 -4
-15 31 -6 91 8 46 20 48 27 3z"/>
<path d="M8450 7270 c0 -5 9 -10 20 -10 11 0 20 5 20 10 0 6 -9 10 -20 10 -11
0 -20 -4 -20 -10z"/>
<path d="M2245 7210 c-3 -5 3 -10 15 -10 12 0 18 5 15 10 -3 6 -10 10 -15 10
-5 0 -12 -4 -15 -10z"/>
<path d="M2165 7187 c-13 -10 -15 -16 -6 -21 17 -11 41 0 41 19 0 19 -11 19
-35 2z"/>
<path d="M2330 7105 c0 -34 2 -36 28 -33 33 4 44 42 15 52 -10 3 -24 9 -30 12
-9 4 -13 -5 -13 -31z"/>
<path d="M6574 7106 c-4 -9 -4 -20 0 -23 3 -4 12 -1 18 5 9 9 9 15 0 24 -9 9
-13 7 -18 -6z"/>
<path d="M227 7063 c-12 -11 -8 -23 8 -23 8 0 15 7 15 15 0 16 -12 20 -23 8z"/>
<path d="M8030 7025 c0 -11 7 -15 23 -13 12 2 22 8 22 13 0 6 -10 11 -22 13
-16 2 -23 -2 -23 -13z"/>
<path d="M5510 7010 c-11 -7 -11 -11 -1 -24 18 -22 31 -20 31 3 0 24 -12 32
-30 21z"/>
<path d="M6510 6960 c0 -19 3 -21 12 -12 9 9 9 15 0 24 -9 9 -12 7 -12 -12z"/>
<path d="M2590 6861 c0 -19 23 -35 34 -24 14 15 5 43 -14 43 -13 0 -20 -7 -20
-19z"/>
<path d="M5482 6843 c4 -52 28 -56 28 -4 0 30 -4 41 -16 41 -11 0 -14 -9 -12
-37z"/>
<path d="M398 6778 c8 -8 17 -8 34 0 22 10 21 11 -11 11 -27 1 -32 -2 -23 -11z"/>
<path d="M3714 6769 c-10 -17 13 -36 27 -22 12 12 4 33 -11 33 -5 0 -12 -5
-16 -11z"/>
<path d="M5454 6766 c-4 -9 -4 -20 0 -23 3 -4 12 -1 18 5 9 9 9 15 0 24 -9 9
-13 7 -18 -6z"/>
<path d="M2842 6729 c2 -6 8 -10 13 -10 5 0 11 4 13 10 2 6 -4 11 -13 11 -9 0
-15 -5 -13 -11z"/>
<path d="M2790 6674 c0 -31 23 -28 28 4 2 15 -2 22 -12 22 -11 0 -16 -9 -16
-26z"/>
<path d="M7547 6540 c-11 -16 -13 -26 -6 -29 16 -5 31 14 27 35 -3 17 -5 16
-21 -6z"/>
<path d="M6986 6493 c-11 -11 -6 -23 9 -23 8 0 15 4 15 9 0 13 -16 22 -24 14z"/>
<path d="M7072 6488 c6 -18 28 -21 28 -4 0 9 -7 16 -16 16 -9 0 -14 -5 -12
-12z"/>
<path d="M9560 6486 c0 -8 5 -18 10 -21 21 -13 -3 -25 -51 -25 -36 0 -49 -4
-49 -14 0 -9 12 -16 33 -18 24 -2 32 -8 32 -22 0 -14 -10 -22 -32 -28 -23 -6
-33 -14 -33 -28 0 -11 5 -20 10 -20 6 0 10 -9 10 -20 0 -11 -4 -20 -10 -20 -5
0 -10 9 -10 20 0 11 -7 20 -15 20 -8 0 -15 -9 -15 -20 0 -11 -5 -29 -12 -39
-9 -15 -9 -47 0 -135 11 -113 6 -166 -17 -166 -5 0 -12 -21 -15 -47 -11 -83
-11 -108 -1 -111 6 -1 11 13 13 33 2 21 9 35 16 35 10 0 14 -34 15 -152 0 -97
6 -170 15 -202 20 -72 40 -212 32 -231 -10 -26 20 -87 41 -83 16 3 18 -5 16
-62 -2 -48 0 -60 8 -47 5 9 17 17 26 17 14 0 15 12 11 91 -3 50 -11 96 -17
102 -6 6 -11 45 -11 90 0 44 -5 88 -12 100 -11 20 -25 230 -31 462 -1 39 -6
75 -10 82 -4 7 -1 26 8 42 10 20 15 57 15 109 0 46 5 83 12 90 8 8 8 15 -1 26
-7 8 -8 17 -3 20 5 3 12 20 16 37 5 25 10 30 23 24 47 -19 53 -18 53 9 0 19
-5 26 -19 26 -19 0 -35 23 -24 34 4 3 15 6 25 6 10 0 18 7 18 16 0 8 -4 13 -9
10 -5 -3 -14 1 -21 9 -16 19 -40 19 -40 1z"/>
<path d="M3865 6418 c-4 -9 -2 -24 3 -33 12 -23 22 2 12 30 -7 18 -9 18 -15 3z"/>
<path d="M2960 6389 c0 -11 5 -17 10 -14 6 3 10 13 10 21 0 8 -4 14 -10 14 -5
0 -10 -9 -10 -21z"/>
<path d="M9404 6395 c-7 -18 3 -35 22 -35 8 0 14 10 14 25 0 27 -27 35 -36 10z"/>
<path d="M7305 6357 c-8 -12 -15 -27 -15 -34 0 -7 -9 -22 -20 -33 -18 -18 -19
-20 -2 -20 10 0 25 8 34 18 9 9 24 23 32 30 9 7 16 21 16 31 0 28 -27 33 -45
8z"/>
<path d="M9350 6335 c0 -8 5 -15 10 -15 6 0 10 7 10 15 0 8 -4 15 -10 15 -5 0
-10 -7 -10 -15z"/>
<path d="M3867 6313 c-4 -3 -7 -17 -7 -30 0 -28 23 -27 28 1 4 20 -11 40 -21
29z"/>
<path d="M3090 6285 c0 -8 5 -15 10 -15 6 0 10 7 10 15 0 8 -4 15 -10 15 -5 0
-10 -7 -10 -15z"/>
<path d="M3950 6280 c0 -11 7 -20 15 -20 8 0 15 9 15 20 0 11 -7 20 -15 20 -8
0 -15 -9 -15 -20z"/>
<path d="M8300 6245 c0 -11 7 -15 23 -13 12 2 22 8 22 13 0 6 -10 11 -22 13
-16 2 -23 -2 -23 -13z"/>
<path d="M8567 6224 c-8 -8 1 -24 14 -24 5 0 9 7 9 15 0 15 -12 20 -23 9z"/>
<path d="M6116 6177 c-5 -15 -6 -31 -2 -34 11 -11 18 5 14 34 l-4 28 -8 -28z"/>
<path d="M8474 6175 c-4 -9 -2 -21 4 -27 15 -15 44 -1 40 19 -4 23 -36 29 -44
8z"/>
<path d="M8247 6174 c-17 -18 -6 -35 21 -32 16 2 27 9 27 18 0 16 -36 26 -48
14z"/>
<path d="M8562 6128 c-19 -19 -14 -28 13 -28 18 0 25 5 25 20 0 22 -20 26 -38
8z"/>
<path d="M1270 6118 c14 -5 33 -14 42 -19 24 -12 61 -11 53 1 -3 6 -17 10 -30
10 -13 0 -27 5 -30 10 -3 6 -18 10 -33 9 l-27 0 25 -11z"/>
<path d="M8180 6123 c0 -17 19 -35 29 -29 18 12 12 36 -9 36 -11 0 -20 -3 -20
-7z"/>
<path d="M9383 6076 c-11 -48 1 -91 18 -65 11 18 12 96 1 103 -5 3 -13 -14
-19 -38z"/>
<path d="M8431 6062 c-6 -13 -11 -37 -11 -55 0 -18 -7 -41 -15 -51 -18 -23
-21 -147 -5 -176 6 -11 13 -106 17 -212 4 -127 10 -205 19 -227 8 -18 14 -59
14 -91 0 -32 7 -74 15 -93 8 -20 15 -58 15 -85 0 -27 6 -57 15 -68 8 -10 15
-34 15 -53 0 -32 17 -105 42 -176 5 -16 14 -50 19 -75 5 -24 14 -49 19 -54 6
-6 10 -18 10 -27 0 -9 7 -30 15 -45 8 -16 15 -37 15 -46 0 -9 7 -30 15 -47 8
-17 22 -45 30 -62 8 -17 15 -39 15 -50 0 -11 7 -22 15 -25 8 -4 15 -12 15 -19
0 -17 69 -153 81 -161 5 -3 9 -14 9 -24 0 -11 8 -27 18 -37 11 -10 40 -45 67
-78 90 -112 140 -165 157 -165 9 0 45 -27 79 -60 34 -33 68 -60 76 -60 7 0 16
-6 19 -14 3 -8 13 -17 22 -20 9 -3 26 -11 37 -18 78 -51 157 -98 195 -117 25
-12 65 -33 89 -47 24 -13 48 -24 53 -24 4 0 8 27 8 60 0 60 0 60 -29 60 -16 0
-31 6 -35 15 -3 9 -18 15 -40 15 -25 0 -35 5 -39 19 -2 11 -15 21 -28 23 -18
2 -25 10 -27 31 -2 15 -9 27 -16 27 -8 0 -30 7 -50 15 -32 14 -35 17 -24 35
10 15 10 22 0 32 -10 10 -14 8 -18 -10 -4 -12 -14 -22 -24 -22 -10 0 -21 -6
-23 -12 -3 -8 -6 -6 -6 5 -1 9 -8 17 -16 17 -8 0 -15 5 -15 10 0 6 5 10 10 10
6 0 10 7 10 15 0 8 -4 15 -10 15 -5 0 -10 -4 -10 -10 0 -5 -13 -10 -30 -10
-20 0 -30 5 -30 15 0 8 6 15 14 15 8 0 17 4 21 10 7 11 -46 40 -73 40 -13 0
-22 9 -26 26 -5 20 -12 25 -34 22 -38 -4 -41 25 -5 56 21 19 25 27 17 36 -15
15 -54 -4 -54 -25 0 -9 -6 -12 -15 -9 -8 4 -22 1 -30 -6 -8 -6 -19 -9 -25 -5
-15 9 21 54 43 55 34 0 15 35 -21 38 -21 2 -38 12 -50 28 -9 14 -27 38 -39 54
-13 15 -23 41 -23 58 0 40 -9 62 -26 62 -9 0 -14 -12 -14 -34 0 -38 -14 -55
-24 -30 -10 26 -7 144 4 144 6 0 10 8 10 18 -1 16 -2 15 -15 -2 -14 -18 -15
-18 -39 5 -30 28 -32 46 -10 70 16 18 12 59 -7 59 -5 0 -9 7 -9 15 0 8 -9 19
-20 25 -15 8 -20 21 -20 54 0 30 -5 46 -15 50 -11 4 -15 21 -15 63 0 46 -4 62
-20 76 -11 9 -20 25 -20 34 0 10 -9 24 -20 31 -15 9 -20 23 -20 55 0 24 -5 48
-11 54 -16 16 -28 79 -18 94 7 11 13 9 28 -11 18 -22 20 -23 27 -7 4 11 0 25
-10 36 -11 12 -16 36 -16 74 0 36 -4 57 -11 57 -19 0 -38 -33 -39 -65 0 -16
-4 -37 -10 -45 -16 -25 -24 16 -12 58 20 67 22 101 8 115 -11 11 -12 22 -3 55
10 36 8 47 -11 85 -12 24 -22 55 -22 68 0 13 -5 40 -10 60 -8 28 -6 54 6 105
8 38 20 74 25 80 6 7 4 16 -6 24 -11 9 -12 16 -4 26 7 9 6 20 -4 40 -9 17 -17
23 -21 15 -22 -35 -40 15 -20 54 14 27 21 88 13 115 -3 11 5 16 29 18 23 2 32
8 32 22 0 16 -7 18 -49 17 -41 -2 -52 -6 -60 -25z m279 -1490 c0 -13 -12 -22
-22 -16 -10 6 -1 24 13 24 5 0 9 -4 9 -8z m36 -48 c-3 -9 -6 -21 -6 -27 0 -8
-3 -8 -11 0 -13 13 -5 43 12 43 6 0 8 -7 5 -16z m574 -769 c0 -8 -4 -15 -9
-15 -13 0 -22 16 -14 24 11 11 23 6 23 -9z m50 -25 c0 -5 -9 -10 -20 -10 -11
0 -20 5 -20 10 0 6 9 10 20 10 11 0 20 -4 20 -10z"/>
<path d="M480 6070 c0 -5 9 -10 20 -10 11 0 20 5 20 10 0 6 -9 10 -20 10 -11
0 -20 -4 -20 -10z"/>
<path d="M5221 6051 c-1 -27 2 -32 11 -23 8 8 8 17 0 34 -10 22 -11 21 -11
-11z"/>
<path d="M6060 6016 c0 -8 5 -18 10 -21 6 -3 10 1 10 9 0 8 -4 18 -10 21 -5 3
-10 -1 -10 -9z"/>
<path d="M3205 6009 c-10 -15 3 -25 16 -12 7 7 7 13 1 17 -6 3 -14 1 -17 -5z"/>
<path d="M8515 6010 c-3 -6 -3 -20 1 -32 6 -21 7 -21 20 -3 8 10 14 25 14 32
0 15 -26 18 -35 3z"/>
<path d="M8487 5923 c-3 -5 -2 -15 2 -22 7 -10 10 -10 16 -1 4 6 3 16 -3 22
-5 5 -12 6 -15 1z"/>
<path d="M8576 5922 c-3 -5 -1 -22 4 -38 8 -29 8 -29 9 9 1 36 -3 45 -13 29z"/>
<path d="M3247 5898 c-7 -25 0 -41 14 -33 12 8 12 55 0 55 -5 0 -11 -10 -14
-22z"/>
<path d="M5187 5853 c-14 -13 -7 -63 8 -63 9 0 15 9 15 23 0 26 -14 50 -23 40z"/>
<path d="M6025 5830 c-8 -35 3 -60 16 -39 12 19 11 69 0 69 -5 0 -12 -13 -16
-30z"/>
<path d="M7945 5810 c-4 -12 -5 -22 -3 -23 1 -1 13 -8 26 -15 19 -11 22 -10
22 6 0 11 -9 27 -19 36 -18 17 -20 16 -26 -4z"/>
<path d="M150 5806 c0 -21 20 -30 33 -17 9 9 8 14 -3 21 -21 14 -30 12 -30 -4z"/>
<path d="M7912 5759 c2 -6 8 -10 13 -10 5 0 11 4 13 10 2 6 -4 11 -13 11 -9 0
-15 -5 -13 -11z"/>
<path d="M5996 5665 c-8 -22 3 -40 16 -27 7 7 7 16 1 27 -9 16 -10 16 -17 0z"/>
<path d="M4140 5570 c0 -30 13 -40 25 -20 8 13 -4 50 -16 50 -5 0 -9 -13 -9
-30z"/>
<path d="M1986 5568 c13 -44 49 -44 38 0 -4 13 -14 22 -26 22 -15 0 -18 -4
-12 -22z"/>
<path d="M3294 5579 c-3 -6 -1 -16 5 -22 8 -8 11 -5 11 11 0 24 -5 28 -16 11z"/>
<path d="M8517 5573 c-12 -11 -8 -23 8 -23 9 0 17 -14 21 -40 8 -46 24 -44 24
3 -1 46 -32 82 -53 60z"/>
<path d="M7735 5530 c-4 -6 -3 -16 3 -22 6 -6 12 -6 17 2 4 6 3 16 -3 22 -6 6
-12 6 -17 -2z"/>
<path d="M7830 5493 c0 -28 3 -34 10 -23 13 20 13 47 0 55 -6 4 -10 -9 -10
-32z"/>
<path d="M9395 5455 c5 -11 11 -48 14 -83 7 -78 26 -77 26 0 0 48 -4 62 -24
80 -22 21 -23 21 -16 3z"/>
<path d="M4113 5360 c0 -30 2 -43 4 -27 2 15 2 39 0 55 -2 15 -4 2 -4 -28z"/>
<path d="M7770 5385 c0 -14 5 -25 10 -25 6 0 10 11 10 25 0 14 -4 25 -10 25
-5 0 -10 -11 -10 -25z"/>
<path d="M3298 5394 c-11 -11 -10 -94 1 -94 6 0 12 3 14 8 7 12 -7 94 -15 86z"/>
<path d="M7705 5337 c-4 -10 -5 -21 -1 -24 10 -10 18 4 13 24 -4 17 -4 17 -12
0z"/>
<path d="M6867 5323 c-12 -11 -8 -23 8 -23 8 0 15 7 15 15 0 16 -12 20 -23 8z"/>
<path d="M2157 5293 c-4 -3 -7 -19 -7 -35 0 -35 23 -34 28 1 4 25 -10 46 -21
34z"/>
<path d="M4204 5180 c0 -63 1 -89 3 -57 2 31 2 83 0 115 -2 31 -3 5 -3 -58z"/>
<path d="M901 5224 c-16 -13 -45 -31 -65 -39 -29 -12 -36 -21 -36 -43 0 -16
-14 -43 -34 -67 -31 -36 -37 -39 -55 -27 -18 10 -21 10 -21 -3 0 -8 5 -15 10
-15 13 0 13 -47 0 -55 -6 -4 -17 -2 -24 4 -10 9 -15 7 -20 -5 -4 -10 -2 -22 4
-28 15 -15 12 -62 -5 -76 -8 -7 -15 -21 -15 -31 0 -20 -15 -25 -25 -9 -14 23
-20 6 -21 -65 -1 -42 -4 -78 -7 -81 -15 -16 -27 13 -27 67 0 48 -3 59 -16 59
-15 0 -16 -10 -11 -82 4 -46 7 -150 7 -232 0 -82 2 -147 5 -145 2 3 6 54 7
114 2 72 7 110 15 112 19 6 23 -216 4 -235 -12 -11 -12 -23 -1 -70 7 -31 17
-70 23 -85 11 -31 16 -59 24 -125 4 -34 10 -45 29 -52 13 -5 24 -17 24 -27 0
-16 9 -39 52 -125 5 -11 4 -25 -4 -37 -9 -15 -8 -24 5 -45 10 -14 24 -26 32
-26 11 0 15 -11 15 -40 0 -29 4 -40 15 -40 8 0 15 9 15 19 0 11 4 23 10 26 13
8 13 -41 0 -65 -7 -13 -7 -21 2 -26 6 -4 14 -2 16 4 8 24 22 11 22 -21 0 -24
8 -41 30 -62 16 -16 30 -37 30 -47 0 -9 12 -25 26 -35 25 -16 27 -16 40 2 13
18 15 18 31 2 23 -23 8 -48 -36 -59 -17 -5 -29 -13 -26 -18 7 -11 108 -1 116
12 9 14 39 -2 39 -22 0 -17 29 -50 45 -50 5 0 18 -9 29 -19 28 -26 109 -31
133 -8 10 9 35 31 56 48 31 26 37 37 32 57 -4 17 0 31 14 46 26 28 39 130 19
142 -12 7 -13 24 -6 94 4 47 13 110 18 141 12 67 12 286 0 249 -4 -14 -8 -67
-9 -119 -1 -52 -3 -92 -5 -90 -2 2 -7 100 -10 218 -4 118 -9 218 -12 223 -3 5
2 18 11 28 14 16 15 25 7 50 -6 17 -14 65 -18 106 -6 64 -4 77 10 87 23 17 10
47 -20 47 -19 0 -24 -5 -24 -25 0 -14 -5 -25 -11 -25 -7 0 -9 9 -6 23 3 12 11
43 18 68 10 39 9 51 -4 78 -8 17 -18 45 -22 62 -4 17 -20 50 -36 74 -19 28
-29 56 -29 80 0 27 -9 48 -36 81 -20 24 -45 44 -55 44 -10 0 -23 9 -29 19 -14
26 -13 28 10 34 26 7 26 37 1 37 -11 0 -23 -4 -26 -10 -12 -19 -47 -10 -74 18
-24 26 -56 41 -119 55 -15 4 -32 -3 -51 -19z m107 -57 c6 -5 12 -16 12 -23 0
-12 39 -43 100 -79 9 -5 32 -28 51 -50 19 -22 37 -42 40 -45 3 -3 9 -25 12
-49 3 -26 12 -48 22 -54 13 -7 15 -17 11 -41 -4 -21 -1 -39 9 -51 8 -11 15
-40 15 -65 0 -25 7 -54 15 -64 10 -13 15 -44 15 -90 1 -39 7 -89 15 -111 10
-28 15 -85 15 -192 0 -114 3 -154 13 -160 10 -6 11 -35 5 -138 -5 -71 -11
-191 -14 -265 -3 -77 -11 -141 -17 -149 -7 -7 -11 -40 -10 -72 0 -33 -3 -62
-8 -65 -5 -3 -9 -21 -9 -39 0 -54 -54 -71 -55 -18 0 7 -19 25 -42 40 -34 23
-143 108 -213 167 -19 16 -62 66 -75 87 -32 52 -66 98 -75 104 -5 3 -10 15
-10 25 0 10 -7 25 -15 34 -8 8 -15 20 -15 27 0 7 -6 20 -13 28 -12 15 -26 47
-57 131 -7 19 -15 52 -17 72 -3 21 -11 42 -19 49 -9 8 -14 33 -14 74 0 43 -5
66 -15 75 -21 18 -22 396 0 455 8 22 14 55 15 73 0 17 4 32 10 32 5 0 12 11
16 24 13 52 97 204 121 219 7 4 13 16 13 27 0 10 9 21 19 25 11 3 29 22 40 41
20 33 23 35 58 28 21 -4 44 -11 51 -17z m392 -1643 c0 -35 -16 -46 -26 -19 -8
21 4 67 16 60 6 -3 10 -22 10 -41z"/>
<path d="M9420 5180 c0 -16 5 -30 10 -30 6 0 10 14 10 30 0 17 -4 30 -10 30
-5 0 -10 -13 -10 -30z"/>
<path d="M6834 5167 c-7 -20 -2 -47 11 -50 14 -3 19 43 6 56 -7 7 -12 6 -17
-6z"/>
<path d="M2177 5132 c-23 -52 -22 -54 13 -34 30 17 35 28 24 56 -10 25 -19 19
-37 -22z"/>
<path d="M7695 5140 c-20 -22 -13 -40 16 -40 14 0 19 7 19 24 0 33 -14 40 -35
16z"/>
<path d="M716 5143 c-14 -14 -5 -43 13 -43 14 0 18 5 14 20 -6 23 -17 33 -27
23z"/>
<path d="M9592 5078 c5 -34 38 -37 38 -4 0 20 -5 26 -21 26 -15 0 -20 -5 -17
-22z"/>
<path d="M536 5063 c-12 -12 -6 -43 9 -43 8 0 15 9 15 19 0 21 -13 34 -24 24z"/>
<path d="M624 5056 c-4 -10 -2 -22 4 -28 8 -8 13 -7 18 6 4 10 2 22 -4 28 -8
8 -13 7 -18 -6z"/>
<path d="M3320 5048 c0 -12 4 -30 10 -38 8 -12 10 -12 15 2 9 23 3 50 -12 56
-8 2 -13 -5 -13 -20z"/>
<path d="M1310 4991 c0 -11 6 -26 14 -33 7 -8 17 -29 21 -46 3 -18 11 -32 16
-32 14 0 10 53 -6 74 -8 11 -15 28 -15 38 0 10 -7 18 -15 18 -8 0 -15 -9 -15
-19z"/>
<path d="M587 4973 c-14 -13 -6 -33 13 -33 22 0 23 1 14 24 -7 17 -16 20 -27
9z"/>
<path d="M9600 4920 c0 -5 7 -10 15 -10 8 0 15 5 15 10 0 6 -7 10 -15 10 -8 0
-15 -4 -15 -10z"/>
<path d="M2253 4870 c0 -25 2 -35 4 -22 2 12 2 32 0 45 -2 12 -4 2 -4 -23z"/>
<path d="M6807 4880 c-11 -40 -8 -60 8 -60 16 0 18 19 6 60 l-7 25 -7 -25z"/>
<path d="M3327 4858 c-7 -25 0 -41 14 -33 12 8 12 42 0 49 -5 3 -11 -4 -14
-16z"/>
<path d="M504 4846 c-8 -22 3 -33 18 -18 9 9 9 15 0 24 -9 9 -13 7 -18 -6z"/>
<path d="M1405 4730 c-3 -11 -2 -28 4 -37 8 -15 10 -11 11 20 0 41 -5 47 -15
17z"/>
<path d="M3233 4694 c-3 -8 -1 -25 4 -37 l10 -22 12 23 c13 25 9 52 -9 52 -6
0 -13 -7 -17 -16z"/>
<path d="M4136 4664 c-12 -32 -7 -84 9 -84 11 0 15 12 15 44 0 46 -13 68 -24
40z"/>
<path d="M3190 4602 c0 -20 49 -65 64 -59 22 9 20 27 -3 27 -10 0 -21 9 -24
20 -5 19 -37 29 -37 12z"/>
<path d="M4104 4567 c-3 -9 -3 -25 1 -34 6 -16 8 -15 16 6 6 16 6 28 0 34 -7
7 -12 5 -17 -6z"/>
<path d="M8806 4559 c7 -8 14 -23 17 -34 4 -13 5 -9 4 9 -1 16 -9 32 -17 34
-12 4 -13 2 -4 -9z"/>
<path d="M8427 4376 c-3 -8 -2 -18 3 -21 13 -8 20 9 11 24 -6 10 -10 9 -14 -3z"/>
<path d="M3117 4338 c-3 -12 -2 -28 2 -36 7 -13 11 -11 21 7 12 23 8 51 -9 51
-5 0 -11 -10 -14 -22z"/>
<path d="M3087 4230 c-7 -26 3 -61 14 -54 12 7 12 74 0 74 -5 0 -11 -9 -14
-20z"/>
<path d="M4910 4131 c0 -21 5 -31 16 -31 11 0 14 8 12 27 -4 39 -28 42 -28 4z"/>
<path d="M4980 4126 c0 -22 3 -27 11 -19 8 8 8 16 0 30 -9 16 -10 14 -11 -11z"/>
<path d="M3054 4123 c-3 -10 -10 -26 -15 -35 -7 -13 -5 -18 4 -18 18 0 37 21
37 41 0 25 -19 34 -26 12z"/>
<path d="M5812 4068 c2 -24 8 -43 13 -43 6 0 11 19 13 43 3 33 0 42 -13 42
-13 0 -16 -9 -13 -42z"/>
<path d="M7669 4093 c-1 -5 0 -24 1 -43 4 -87 29 -97 27 -10 -1 41 -6 60 -14
60 -7 0 -13 -3 -14 -7z"/>
<path d="M3930 4006 c0 -14 5 -26 10 -26 6 0 10 9 10 19 0 11 -4 23 -10 26 -6
4 -10 -5 -10 -19z"/>
<path d="M9120 3995 c0 -17 9 -19 28 -6 11 7 10 10 -3 15 -23 9 -25 8 -25 -9z"/>
<path d="M591 3963 c1 -10 5 -29 9 -43 7 -21 8 -19 9 18 1 23 -3 42 -9 42 -5
0 -10 -8 -9 -17z"/>
<path d="M2927 3953 c-12 -11 -8 -23 8 -23 8 0 15 7 15 15 0 16 -12 20 -23 8z"/>
<path d="M8694 3925 c-7 -18 3 -35 22 -35 8 0 14 -5 14 -12 0 -6 3 -9 6 -6 6
6 -23 68 -32 68 -2 0 -7 -7 -10 -15z"/>
<path d="M656 3905 c-3 -8 -3 -22 1 -31 5 -13 7 -13 14 -2 11 17 11 48 0 48
-5 0 -11 -7 -15 -15z"/>
<path d="M535 3897 c-4 -10 -5 -21 -1 -24 10 -10 18 4 13 24 -4 17 -4 17 -12
0z"/>
<path d="M2857 3869 c-23 -23 -25 -30 -13 -35 14 -6 56 28 56 45 0 21 -16 17
-43 -10z"/>
<path d="M2975 3891 c-8 -15 3 -31 21 -31 9 0 14 7 12 17 -4 20 -24 28 -33 14z"/>
<path d="M6867 3863 c-11 -10 -8 -51 3 -58 6 -3 14 4 19 17 12 34 -2 61 -22
41z"/>
<path d="M9356 3851 c-3 -5 6 -11 19 -14 25 -4 40 4 28 17 -9 9 -41 7 -47 -3z"/>
<path d="M9510 3820 c0 -5 9 -10 20 -10 11 0 20 5 20 10 0 6 -9 10 -20 10 -11
0 -20 -4 -20 -10z"/>
<path d="M9447 3794 c-4 -4 -7 -16 -7 -26 0 -14 6 -19 23 -16 14 2 22 10 22
23 0 20 -25 32 -38 19z"/>
<path d="M6924 3767 c-8 -21 2 -35 16 -21 5 5 6 15 0 24 -8 12 -10 12 -16 -3z"/>
<path d="M7750 3710 c0 -19 5 -30 14 -30 20 0 29 16 21 40 -10 32 -35 25 -35
-10z"/>
<path d="M9500 3726 c0 -15 21 -26 51 -26 12 0 23 -10 29 -25 6 -15 17 -25 30
-25 15 0 20 7 20 25 0 20 -5 25 -25 25 -14 0 -29 8 -35 20 -13 24 -70 29 -70
6z"/>
<path d="M7707 3653 c-13 -12 -7 -33 8 -33 8 0 15 9 15 20 0 20 -11 26 -23 13z"/>
<path d="M715 3610 c-3 -5 1 -10 9 -10 8 0 18 5 21 10 3 6 -1 10 -9 10 -8 0
-18 -4 -21 -10z"/>
<path d="M3650 3601 c0 -11 5 -23 10 -26 6 -4 10 5 10 19 0 14 -4 26 -10 26
-5 0 -10 -9 -10 -19z"/>
<path d="M3680 3548 c0 -7 5 -20 10 -28 8 -12 10 -9 10 13 0 15 -4 27 -10 27
-5 0 -10 -6 -10 -12z"/>
<path d="M2550 3500 c0 -24 26 -38 42 -22 8 8 8 15 -2 27 -18 21 -40 19 -40
-5z"/>
<path d="M2395 3500 c-8 -13 4 -32 16 -25 12 8 12 35 0 35 -6 0 -13 -4 -16
-10z"/>
<path d="M3626 3503 c-13 -13 -6 -63 9 -63 10 0 15 10 15 29 0 30 -12 46 -24
34z"/>
<path d="M4727 3414 c-14 -14 -7 -35 11 -32 9 2 17 10 17 17 0 16 -18 25 -28
15z"/>
<path d="M4665 3370 c-8 -13 4 -50 16 -50 11 0 29 41 22 53 -6 10 -31 9 -38
-3z"/>
<path d="M8340 3310 c0 -19 3 -21 12 -12 9 9 9 15 0 24 -9 9 -12 7 -12 -12z"/>
<path d="M3421 3298 c-1 -16 4 -28 9 -28 12 0 12 8 0 35 -8 18 -9 17 -9 -7z"/>
<path d="M3510 3295 c0 -15 4 -24 10 -20 6 3 10 12 10 20 0 8 -4 17 -10 20 -6
4 -10 -5 -10 -20z"/>
<path d="M7011 3291 c-17 -11 -7 -41 13 -41 15 0 26 -21 26 -51 0 -12 7 -19
20 -19 31 0 37 30 12 51 -12 9 -26 29 -32 43 -10 28 -17 31 -39 17z"/>
<path d="M4625 3228 c-8 -28 -15 -60 -15 -71 0 -26 24 -16 28 12 2 12 9 33 17
47 13 26 10 64 -6 64 -4 0 -15 -23 -24 -52z"/>
<path d="M3384 3227 c-9 -24 6 -44 18 -22 7 11 6 21 -1 28 -7 7 -12 6 -17 -6z"/>
<path d="M8180 3208 c0 -12 -7 -29 -15 -39 -14 -15 -14 -18 1 -33 15 -16 15
-18 -2 -31 -14 -10 -16 -17 -7 -25 8 -9 13 -7 18 9 10 33 32 25 78 -26 23 -26
50 -54 59 -62 84 -77 96 -90 82 -102 -19 -16 -6 -32 21 -25 17 4 27 0 38 -18
9 -13 30 -26 46 -29 20 -4 35 -16 42 -31 6 -13 22 -29 35 -35 26 -12 28 -18
15 -54 -9 -23 -9 -23 37 -16 73 12 82 11 94 -16 6 -14 23 -27 38 -30 16 -3 36
-15 46 -26 9 -10 23 -19 31 -19 8 0 35 -11 61 -25 26 -14 56 -25 68 -25 11 0
29 -6 40 -14 19 -15 19 -15 -1 -30 -18 -13 -18 -15 -3 -21 32 -13 73 -1 73 20
0 21 25 31 52 21 14 -6 14 -8 -1 -24 -9 -10 -16 -25 -16 -33 0 -8 -5 -20 -12
-27 -22 -22 8 -13 48 14 36 25 44 26 117 21 83 -7 101 -12 91 -29 -4 -6 -24
-7 -50 -3 -45 6 -88 -1 -80 -14 3 -4 80 -6 173 -5 258 2 233 -3 233 44 l0 40
-117 1 c-65 1 -122 1 -127 0 -4 -1 -19 5 -32 14 -13 8 -41 15 -62 15 -22 0
-56 7 -75 15 -20 8 -52 15 -71 15 -19 0 -39 6 -43 14 -5 7 -33 16 -66 19 -45
4 -64 11 -82 31 -16 17 -35 26 -54 26 -16 0 -33 5 -36 11 -4 5 -17 14 -28 20
-25 10 -49 25 -92 55 -16 12 -52 33 -80 47 -82 42 -377 307 -391 352 -9 26
-65 85 -81 85 -7 0 -13 -10 -13 -22z"/>
<path d="M4708 3160 c-6 -38 -3 -49 10 -34 5 5 6 23 2 39 l-6 30 -6 -35z"/>
<path d="M3420 3154 c0 -9 -9 -18 -20 -21 -11 -3 -20 -9 -20 -14 0 -15 19 -10
40 11 22 22 26 40 10 40 -5 0 -10 -7 -10 -16z"/>
<path d="M7120 3163 c0 -5 7 -16 14 -26 12 -16 14 -16 20 -1 10 26 7 34 -14
34 -11 0 -20 -3 -20 -7z"/>
<path d="M4554 3139 c-10 -17 13 -36 27 -22 12 12 4 33 -11 33 -5 0 -12 -5
-16 -11z"/>
<path d="M4905 3130 c-4 -6 5 -10 20 -10 15 0 24 4 20 10 -3 6 -12 10 -20 10
-8 0 -17 -4 -20 -10z"/>
<path d="M7067 3133 c-14 -13 -6 -33 13 -33 13 0 20 7 20 20 0 19 -20 27 -33
13z"/>
<path d="M4785 3100 c-8 -13 20 -24 42 -16 15 6 15 8 3 16 -20 13 -37 12 -45
0z"/>
<path d="M3287 3085 c-8 -18 11 -31 25 -17 11 11 3 32 -12 32 -4 0 -10 -7 -13
-15z"/>
<path d="M4608 3088 c9 -9 15 -9 24 0 9 9 7 12 -12 12 -19 0 -21 -3 -12 -12z"/>
<path d="M0 3071 c0 -12 5 -21 10 -21 6 0 10 6 10 14 0 8 -4 18 -10 21 -5 3
-10 -3 -10 -14z"/>
<path d="M3215 3030 c-10 -17 12 -37 25 -24 8 8 6 15 -4 23 -10 9 -16 9 -21 1z"/>
<path d="M8190 3016 c0 -16 19 -25 38 -19 10 4 10 8 1 19 -15 18 -39 18 -39 0z"/>
<path d="M5175 2980 c-4 -6 7 -10 25 -10 18 0 29 4 25 10 -3 6 -15 10 -25 10
-10 0 -22 -4 -25 -10z"/>
<path d="M4556 2964 c-9 -22 -8 -24 9 -24 8 0 15 6 15 14 0 22 -17 28 -24 10z"/>
<path d="M8250 2974 c0 -16 71 -74 90 -74 31 0 19 24 -13 28 -18 2 -27 10 -29
25 -2 14 -11 23 -25 25 -13 2 -23 0 -23 -4z"/>
<path d="M5087 2954 c-15 -15 -6 -24 24 -24 20 0 29 4 27 13 -5 14 -40 21 -51
11z"/>
<path d="M3198 2908 c-40 -21 -49 -38 -22 -38 21 0 84 38 84 51 0 14 -21 10
-62 -13z"/>
<path d="M235 2900 c-8 -13 3 -30 20 -30 23 0 27 18 6 30 -13 7 -22 7 -26 0z"/>
<path d="M4431 2896 c-9 -10 -9 -16 -1 -21 17 -10 37 12 24 25 -8 8 -15 6 -23
-4z"/>
<path d="M5396 2863 c-12 -12 -6 -33 9 -33 8 0 15 6 15 14 0 17 -14 28 -24 19z"/>
<path d="M7732 2838 c-7 -7 -12 -16 -12 -20 0 -12 28 -10 36 3 10 17 -10 31
-24 17z"/>
<path d="M405 2809 c-4 -6 -5 -13 -2 -16 7 -7 27 6 27 18 0 12 -17 12 -25 -2z"/>
<path d="M5366 2803 c-4 -9 -2 -21 4 -27 7 -7 10 -2 10 17 0 31 -5 34 -14 10z"/>
<path d="M3075 2800 c-3 -5 3 -10 15 -10 12 0 18 5 15 10 -3 6 -10 10 -15 10
-5 0 -12 -4 -15 -10z"/>
<path d="M8390 2796 c0 -9 7 -16 16 -16 9 0 14 5 12 12 -6 18 -28 21 -28 4z"/>
<path d="M5302 2744 c2 -15 9 -29 16 -32 10 -3 13 4 10 24 -2 15 -9 29 -16 32
-10 3 -13 -4 -10 -24z"/>
<path d="M8481 2752 c-6 -11 -6 -24 -1 -33 8 -12 12 -12 26 3 17 17 13 48 -5
48 -6 0 -15 -8 -20 -18z"/>
<path d="M2877 2714 c-9 -10 2 -24 19 -24 8 0 14 7 14 15 0 15 -21 21 -33 9z"/>
<path d="M4370 2675 c0 -8 9 -15 20 -15 11 0 20 7 20 15 0 8 -9 15 -20 15 -11
0 -20 -7 -20 -15z"/>
<path d="M4460 2675 c0 -8 7 -15 15 -15 8 0 15 7 15 15 0 8 -7 15 -15 15 -8 0
-15 -7 -15 -15z"/>
<path d="M5270 2675 c0 -8 5 -15 10 -15 6 0 10 7 10 15 0 8 -4 15 -10 15 -5 0
-10 -7 -10 -15z"/>
<path d="M7492 2644 c4 -21 22 -23 26 -1 2 10 -3 17 -13 17 -10 0 -15 -6 -13
-16z"/>
<path d="M5287 2595 c-20 -42 -20 -45 -7 -45 6 0 10 9 10 20 0 11 7 20 15 20
8 0 15 9 15 20 0 31 -14 24 -33 -15z"/>
<path d="M7618 2608 c-3 -15 -1 -32 3 -40 13 -20 21 14 11 42 l-9 24 -5 -26z"/>
<path d="M3860 2606 c0 -8 5 -18 10 -21 6 -3 10 1 10 9 0 8 -4 18 -10 21 -5 3
-10 -1 -10 -9z"/>
<path d="M7526 2584 c-8 -21 1 -34 25 -34 20 0 23 8 13 34 -8 21 -30 21 -38 0z"/>
<path d="M2810 2566 c0 -9 7 -16 16 -16 17 0 14 22 -4 28 -7 2 -12 -3 -12 -12z"/>
<path d="M4290 2545 c0 -15 4 -24 10 -20 6 3 10 12 10 20 0 8 -4 17 -10 20 -6
4 -10 -5 -10 -20z"/>
<path d="M8870 2511 c0 -11 4 -22 8 -25 14 -9 35 12 29 28 -9 23 -37 20 -37
-3z"/>
<path d="M4190 2471 c0 -12 6 -21 16 -21 9 0 14 7 12 17 -5 25 -28 28 -28 4z"/>
<path d="M4225 2440 c-4 -6 -3 -16 3 -22 6 -6 12 -6 17 2 4 6 3 16 -3 22 -6 6
-12 6 -17 -2z"/>
<path d="M4140 2424 c0 -9 7 -14 17 -12 25 5 28 28 4 28 -12 0 -21 -6 -21 -16z"/>
<path d="M2450 2410 c0 -12 45 -24 60 -15 5 3 8 11 5 16 -8 12 -65 12 -65 -1z"/>
<path d="M5060 2405 c0 -8 7 -15 15 -15 8 0 15 7 15 15 0 8 -7 15 -15 15 -8 0
-15 -7 -15 -15z"/>
<path d="M5160 2399 c0 -24 23 -21 28 4 2 10 -3 17 -12 17 -10 0 -16 -9 -16
-21z"/>
<path d="M5100 2365 c0 -19 29 -65 41 -65 16 0 9 47 -9 63 -23 21 -32 21 -32
2z"/>
<path d="M7800 2286 c0 -20 5 -36 10 -36 6 0 10 13 10 29 0 17 -4 33 -10 36
-6 4 -10 -8 -10 -29z"/>
<path d="M4050 2280 c0 -11 5 -20 10 -20 6 0 10 9 10 20 0 11 -4 20 -10 20 -5
0 -10 -9 -10 -20z"/>
<path d="M7255 2240 c-9 -15 -1 -23 21 -18 15 3 16 4 1 16 -11 9 -17 10 -22 2z"/>
<path d="M4855 2170 c-7 -12 2 -30 16 -30 5 0 9 9 9 20 0 21 -15 27 -25 10z"/>
<path d="M4980 2156 c0 -31 6 -34 13 -6 3 11 1 23 -4 26 -5 3 -9 -6 -9 -20z"/>
<path d="M1918 1978 c9 -9 15 -9 24 0 9 9 7 12 -12 12 -19 0 -21 -3 -12 -12z"/>
<path d="M3558 1914 c-11 -10 3 -34 19 -34 8 0 13 7 11 17 -3 18 -20 27 -30
17z"/>
<path d="M8290 1854 c0 -9 7 -14 17 -12 25 5 28 28 4 28 -12 0 -21 -6 -21 -16z"/>
<path d="M3533 1806 c-4 -8 -26 -16 -48 -18 -47 -4 -54 -22 -9 -26 30 -3 84
28 84 49 0 14 -18 11 -27 -5z"/>
<path d="M3566 1752 c-3 -6 -1 -14 5 -17 15 -10 25 3 12 16 -7 7 -13 7 -17 1z"/>
<path d="M3480 1710 c0 -5 7 -10 15 -10 8 0 15 5 15 10 0 6 -7 10 -15 10 -8 0
-15 -4 -15 -10z"/>
<path d="M8780 1660 c0 -5 12 -10 26 -10 14 0 23 4 19 10 -3 6 -15 10 -26 10
-10 0 -19 -4 -19 -10z"/>
<path d="M8875 1661 c-3 -5 -1 -12 4 -15 13 -9 72 5 65 15 -7 12 -61 11 -69 0z"/>
<path d="M8982 1608 c-44 -12 -31 -28 24 -28 31 0 44 4 44 14 0 19 -28 24 -68
14z"/>
<path d="M232 1594 c4 -21 22 -23 26 -1 2 10 -3 17 -13 17 -10 0 -15 -6 -13
-16z"/>
<path d="M3024 1565 c-10 -25 10 -39 36 -25 26 14 22 34 -8 38 -13 2 -25 -3
-28 -13z"/>
<path d="M2870 1506 c0 -10 9 -16 21 -16 24 0 21 23 -4 28 -10 2 -17 -3 -17
-12z"/>
<path d="M2792 1478 c7 -20 68 -23 68 -4 0 12 -10 16 -36 16 -24 0 -34 -4 -32
-12z"/>
<path d="M3030 1470 c0 -5 11 -10 24 -10 14 0 28 5 31 10 4 6 -7 10 -24 10
-17 0 -31 -4 -31 -10z"/>
<path d="M2085 1301 c-19 -8 -18 -9 7 -16 32 -8 59 -4 59 10 0 13 -40 16 -66
6z"/>
<path d="M1465 1280 c-10 -16 4 -30 29 -30 29 0 39 10 25 27 -13 15 -45 17
-54 3z"/>
<path d="M1675 1271 c-8 -14 10 -22 30 -15 13 5 14 8 3 15 -17 11 -26 11 -33
0z"/>
<path d="M4030 1210 c0 -5 9 -10 20 -10 11 0 20 5 20 10 0 6 -9 10 -20 10 -11
0 -20 -4 -20 -10z"/>
<path d="M3830 1175 c0 -16 17 -19 44 -9 26 10 18 24 -14 24 -20 0 -30 -5 -30
-15z"/>
<path d="M3880 1090 c-12 -8 -12 -10 2 -15 20 -8 41 2 33 16 -8 11 -16 11 -35
-1z"/>
<path d="M3673 961 c-28 -24 -29 -31 -3 -31 11 0 20 4 20 10 0 5 11 12 25 16
14 3 25 10 25 15 0 16 -44 9 -67 -10z"/>
<path d="M3440 930 c0 -5 6 -10 14 -10 8 0 18 5 21 10 3 6 -3 10 -14 10 -12 0
-21 -4 -21 -10z"/>
<path d="M3355 881 c-6 -11 9 -23 19 -14 9 9 7 23 -3 23 -6 0 -12 -4 -16 -9z"/>
<path d="M340 730 c0 -5 9 -10 20 -10 11 0 20 5 20 10 0 6 -9 10 -20 10 -11 0
-20 -4 -20 -10z"/>
<path d="M2970 730 c0 -5 7 -10 15 -10 8 0 15 5 15 10 0 6 -7 10 -15 10 -8 0
-15 -4 -15 -10z"/>
<path d="M3110 730 c0 -5 7 -10 15 -10 8 0 15 5 15 10 0 6 -7 10 -15 10 -8 0
-15 -4 -15 -10z"/>
<path d="M273 703 c-24 -9 -13 -23 17 -23 20 0 30 5 30 15 0 15 -22 19 -47 8z"/>
<path d="M440 694 c0 -17 22 -14 28 4 2 7 -3 12 -12 12 -9 0 -16 -7 -16 -16z"/>
<path d="M3050 695 c0 -8 7 -15 15 -15 8 0 15 7 15 15 0 8 -7 15 -15 15 -8 0
-15 -7 -15 -15z"/>
<path d="M370 670 c-12 -7 -7 -12 22 -25 21 -8 48 -15 60 -14 l23 0 -22 11
c-13 6 -23 17 -23 25 0 15 -38 17 -60 3z"/>
<path d="M1190 490 c0 -5 21 -10 46 -10 27 0 43 4 39 10 -3 6 -24 10 -46 10
-21 0 -39 -4 -39 -10z"/>
<path d="M2105 490 c-4 -6 7 -10 25 -10 18 0 29 4 25 10 -3 6 -15 10 -25 10
-10 0 -22 -4 -25 -10z"/>
</g>
</svg>
