<?xml version="1.0" standalone="no"?>
<!DOCTYPE svg PUBLIC "-//W3C//DTD SVG 20010904//EN"
 "http://www.w3.org/TR/2001/REC-SVG-20010904/DTD/svg10.dtd">
<svg version="1.0" xmlns="http://www.w3.org/2000/svg"
 width="144.000000pt" height="144.000000pt" viewBox="0 0 144.000000 144.000000"
 preserveAspectRatio="xMidYMid meet">
<metadata>
Created by potrace 1.11, written by Peter Selinger 2001-2013
</metadata>
<g transform="translate(0.000000,144.000000) scale(0.100000,-0.100000)"
fill="#000000" stroke="none">
<path d="M1308 1400 c-147 -18 -261 -73 -369 -180 -123 -123 -179 -256 -199
-475 -12 -125 -30 -195 -70 -274 -64 -127 -214 -233 -350 -249 -116 -13 -183
1 -313 66 -4 2 -6 -40 -5 -94 l3 -97 55 -20 c79 -28 254 -35 340 -13 84 21
192 75 253 125 149 124 223 284 246 536 16 174 55 277 138 366 89 96 210 150
336 151 l67 1 0 77 c0 72 -2 78 -22 84 -13 3 -27 5 -33 5 -5 -1 -40 -5 -77 -9z"/>
<path d="M115 1243 c-11 -2 -41 -11 -67 -19 l-48 -16 0 -93 0 -94 57 27 c48
22 72 27 138 27 67 0 88 -5 131 -27 93 -49 144 -132 152 -245 3 -50 0 -85 -12
-120 -18 -53 -75 -143 -91 -143 -6 0 -11 36 -12 85 -1 47 -9 110 -18 140 -28
98 -119 175 -205 175 -47 0 -73 -11 -112 -48 l-28 -26 0 -207 0 -206 46 -43
c69 -64 124 -85 219 -85 101 0 157 27 238 114 98 106 144 234 134 375 -10 152
-81 277 -206 360 -95 63 -220 91 -316 69z m77 -523 c13 -37 18 -204 6 -215
-12 -12 -57 29 -78 71 -27 55 -27 142 1 177 17 23 23 25 40 14 10 -6 24 -28
31 -47z"/>
<path d="M1283 1126 c-184 -58 -317 -302 -283 -522 29 -189 182 -349 365 -383
32 -6 62 -11 67 -11 4 0 8 36 8 80 l0 79 -37 7 c-55 10 -127 48 -157 85 -102
121 -111 271 -24 404 l32 50 7 -80 c6 -86 27 -160 59 -212 19 -32 94 -93 113
-93 6 0 7 60 3 173 -8 196 -9 179 0 316 5 82 4 105 -7 112 -20 13 -97 10 -146
-5z"/>
</g>
</svg>
