<?xml version="1.0" standalone="yes"?>
<svg width="321" height="321">
<path style="fill:#ffffff; stroke:none;" d="M0 0L0 51C11.7006 49.8028 23.0202 43.618 35 42.1844C56.4182 39.6215 80.5442 47.6577 98 59.5864C105.526 64.7292 115.392 66.0429 118 76L123 81L126 80C127.264 85.4317 134.836 103.821 140 105C140.963 117.208 145.696 128.847 146.505 141C147.987 163.245 138.837 185.522 132 206L129 205L125 214C118.995 214.791 116.242 221.918 111.803 225.715C98.7241 236.901 88.3892 250.382 70 252L70 253L72 253L72 254C62.8404 252.145 52.7874 254.385 44.0394 252.151C29.2639 248.378 8.95101 232.712 1 220L0 220C0 228.713 -3.66697 248.095 1.02778 255.482C5.59214 262.664 18.5132 265.788 26 268.576C59.8633 281.185 102.572 269.554 127.996 244.961C144.744 228.76 156.474 205.849 160.739 183C164.769 161.41 163.737 139.324 169.489 118C188.184 48.6915 248.768 2.29929 321 8L321 0L0 0z"/>
<path style="fill:#74c05c; stroke:none;" d="M141 230C156.947 226.52 175.816 211.023 192 212C193.778 199.959 197.773 188.16 199.573 176C201.792 161.003 201.29 145.859 204.898 131C213.875 94.0387 238.243 60.7574 276 49.2053C291.503 44.462 305.156 44.9896 321 45L321 8C305.299 6.01569 289.383 7.13943 274 10.8704C221.135 23.6921 183.446 65.257 169.489 117C163.29 139.983 165.502 164.019 159.622 187C155.568 202.843 146.629 215.126 141 230z"/>
<path style="fill:#c9eccc; stroke:none;" d="M32 42L32 43L49 43L32 42z"/>
<path style="fill:#329749; stroke:none;" d="M0 51L0 94C20.4507 86.2598 35.0228 76.5671 58 81.8873C65.9891 83.7372 72.3339 89.0124 80 91L85 51C66.6602 45.994 50.4061 41.2301 31 43.1705C20.1682 44.2536 10.4793 49.1378 0 51z"/>
<path style="fill:#93c39d; stroke:none;" d="M22.6667 44.3333L23.3333 44.6667L22.6667 44.3333z"/>
<path style="fill:#8dc294; stroke:none;" d="M62 44L62 45L65 45L62 44z"/>
<path style="fill:#c4eabb; stroke:none;" d="M299 44L299 45L312 45L299 44z"/>
<path style="fill:#ffffff; stroke:none;" d="M0 299L0 321L321 321L321 274C299.542 274 280.215 267.373 263.17 254.34C255.252 248.286 246.417 232.376 236 232L235 224C229.582 224 229.378 213.224 227.5 209.333C220.312 194.445 219.128 171.486 222.333 155C229.272 119.317 250.215 81.0841 287 69.3333C298.603 65.627 309.412 68.0851 321 69L321 45C305.148 45 290.329 44.5137 275 49.2053C265.806 52.0193 256.91 56.6768 249 62.0895C188.7 103.352 211.91 179.116 180.688 236C155.903 281.158 105.429 313.253 53 310.961C34.0286 310.131 18.0723 302.212 0 299z"/>
<path style="fill:#92b098; stroke:none;" d="M14.6667 46.3333L15.3333 46.6667L14.6667 46.3333z"/>
<path style="fill:#74c05c; stroke:none;" d="M85 52L79 92C115.999 115.148 114.342 174.906 82 201C82.2686 168.551 83.0824 134.185 51 115.873C40.4309 109.84 27.1946 107.404 16 113.327C-5.11701 124.501 0 144.296 0 165L0 202C0 207.559 -1.16675 214.701 0.727623 220C6.45386 236.017 32.896 249.23 49 249.961C127.705 253.534 167.224 152.507 128.62 91C119.071 75.7857 103.164 56.7573 85 52z"/>
<path style="fill:#eafce4; stroke:none;" d="M106 64C113.718 74.7729 123.529 83.4339 130.492 95C144.882 118.905 147.46 149.494 139.562 176C135.475 189.714 126.43 200.838 122 214L125 214L129 205L132 206C140.951 187.406 147.797 161.932 146.726 141C146.111 128.979 141.516 116.991 140 105L126 80L123 81L118 76C116.98 69.5982 112.322 65.3103 106 64z"/>
<path style="fill:#c0dcb6; stroke:none;" d="M191 67L188 73L193 67L191 67z"/>
<path style="fill:#98c6a1; stroke:none;" d="M298 67L298 68L301 68L298 67z"/>
<path style="fill:#329749; stroke:none;" d="M234 128L231 128L224.054 160L227 200L233 208L237 215L240 220L239 225L243 225L242 229C246.028 233.746 248.471 240.397 255 242L254 245C257.714 242.186 258.414 236.125 260.627 232.039C263.666 226.425 270.525 219.409 271.227 213C271.805 207.716 266.685 201.555 264.55 197C260.935 189.288 259.103 180.443 258.3 172C256.454 152.591 268.078 130.511 281 117C278.343 150.669 286.905 189.801 321 204L320.91 152L317.129 121L320.87 105.91L321 69C310.772 68.1928 301.262 66.407 291 68.5147C264.033 74.053 236.823 99.8199 234 128z"/>
<path style="fill:#a7d3af; stroke:none;" d="M308 67L308 68L312 68L308 67z"/>
<path style="fill:#86be8d; stroke:none;" d="M316.667 68.3333L317.333 68.6667L316.667 68.3333z"/>
<path style="fill:#a9d2b0; stroke:none;" d="M286.667 69.3333L287.333 69.6667L286.667 69.3333z"/>
<path style="fill:#77ad89; stroke:none;" d="M274.667 74.3333L275.333 74.6667L274.667 74.3333z"/>
<path style="fill:#fefefe; stroke:none;" d="M0 126C6.7434 120.915 12.8596 114.446 21 111.549C30.8367 108.048 41.2499 110.878 50 115.873C83.5067 134.998 77.9793 165.57 84 198C93.9336 193.295 99.2962 179.787 102.782 170C116.535 131.395 93.3258 87.0448 52 80.5903C38.5193 78.4848 24.2083 81.3239 12 87.2593C8.31134 89.0526 2.37875 91.3145 0.603395 95.3256C-2.8242 103.07 0 117.545 0 126z"/>
<path style="fill:#b5e0aa; stroke:none;" d="M223 87L222 90L223 87z"/>
<path style="fill:#a0ce9f; stroke:none;" d="M220 90L218 96L222 90L220 90z"/>
<path style="fill:#6ea880; stroke:none;" d="M242 104L241 107L242 104z"/>
<path style="fill:#468e4f; stroke:none;" d="M239 109C220.65 143.875 213.488 186.19 234.801 222C239.792 230.386 245.872 241.731 255 246L255 242L242 229L243 225L239 225L240 220L237 215L233 208L227 200L224.425 186L224.019 162L231 128L234 128L239 109z"/>
<path style="fill:#eefff8; stroke:none;" d="M319 109L320 138L321 138L321 109L319 109z"/>
<path style="fill:#92d899; stroke:none;" d="M280 117L280 122L281 122L280 117z"/>
<path style="fill:#8dbf99; stroke:none;" d="M317 117L317 126L318 126L317 117z"/>
<path style="fill:#deffe9; stroke:none;" d="M276 124L277 124L278 122L282 161C288.934 169.767 288.252 188.035 301 192C286.591 168.939 280 146.44 280 119L276 124z"/>
<path style="fill:#ffffff; stroke:none;" d="M277 122C238.943 160.428 264.598 236.963 321 237C321 228.92 324.35 211.256 319.972 204.39C314.38 195.62 299.973 193.596 293.509 184.715C288.744 178.167 287.827 165.877 282 161L278.514 135L277 122z"/>
<path style="fill:#d5fdd8; stroke:none;" d="M318 126L320 149L321 149L318 126z"/>
<path style="fill:#94c09d; stroke:none;" d="M280 128L280 132L281 132L280 128z"/>
<path style="fill:#93c39d; stroke:none;" d="M267.333 134.667L267.667 135.333L267.333 134.667z"/>
<path style="fill:#87ba91; stroke:none;" d="M318.333 136.667L318.667 137.333L318.333 136.667z"/>
<path style="fill:#a0d2af; stroke:none;" d="M281.333 142.667L281.667 143.333L281.333 142.667z"/>
<path style="fill:#9bd0a4; stroke:none;" d="M319.333 142.667L319.667 143.333L319.333 142.667z"/>
<path style="fill:#b4e1a6; stroke:none;" d="M31 148L31 149L36 151L31 148z"/>
<path style="fill:#fefefe; stroke:none;" d="M30 149C20.3639 162.984 19.7801 178.651 27.5285 194C29.3432 197.595 37.0737 209.842 42.4113 206.839C46.4771 204.551 45 193.822 45 190C45 176.123 47.2412 152.911 30 149z"/>
<path style="fill:#bfeab4; stroke:none;" d="M201 152L201 160L202 160L201 152z"/>
<path style="fill:#94c6a0; stroke:none;" d="M221 164L221 176L222 176L221 164z"/>
<path style="fill:#96ce9f; stroke:none;" d="M258 166L258 174L259 174L258 166z"/>
<path style="fill:#d9ffda; stroke:none;" d="M221 176L222 192L223 192L221 176z"/>
<path style="fill:#b6dba7; stroke:none;" d="M82 177L82 182L83 182L82 177z"/>
<path style="fill:#b7dea9; stroke:none;" d="M45 184L45 192L46 192L45 184z"/>
<path style="fill:#9dcba4; stroke:none;" d="M223.333 190.667L223.667 191.333L223.333 190.667z"/>
<path style="fill:#c6ffb0; stroke:none;" d="M82 193L82 201L85 200L82 193z"/>
<path style="fill:#91c19b; stroke:none;" d="M263.333 194.667L263.667 195.333L263.333 194.667z"/>
<path style="fill:#e2ffec; stroke:none;" d="M226 202C226.064 207.718 228.607 222.674 235 224L236 232L243 235L226 202z"/>
<path style="fill:#badeae; stroke:none;" d="M152 208L151 211L152 208z"/>
<path style="fill:#6b9e73; stroke:none;" d="M270 208L272 211L270 208z"/>
<path style="fill:#329749; stroke:none;" d="M0 256L0 299C14.1937 303.058 27.057 308.407 42 309.83C92.1472 314.606 141.717 293.258 170.999 252C179.388 240.181 188.841 225.619 191 211C180.436 212.877 170.052 219.156 160 222.935C153.615 225.336 145.727 226.539 140.197 230.778C134.46 235.174 130.414 241.955 125 246.829C114.42 256.355 101.549 263.808 88 268.251C69.9939 274.156 48.1768 275.565 30 269.642C19.332 266.166 10.2778 259.89 0 256z"/>
<path style="fill:#71c25c; stroke:none;" d="M272 211L254 246L254 247C272.499 264.801 295.407 274 321 274L321 237C298.383 236.938 287.978 224.145 272 211z"/>
<path style="fill:#c9efc0; stroke:none;" d="M117 218L114 224L119 218L117 218z"/>
<path style="fill:#c2ddba; stroke:none;" d="M112 224L111 227L112 224z"/>
<path style="fill:#adda9f; stroke:none;" d="M94.6667 239.333L95.3333 239.667L94.6667 239.333z"/>
<path style="fill:#e9ffdf; stroke:none;" d="M37 248L37 249C46.0387 255.315 61.2087 252.774 72 254L72 253L70 253L70 252C77.348 251.663 93.2611 247.331 96 240L57 250.791L37 248z"/>
<path style="fill:#afd3a3; stroke:none;" d="M52 250L52 251L60 251L52 250z"/>
<path style="fill:#c1e2b7; stroke:none;" d="M278 264L278 265L282 266L282 265L278 264z"/>
<path style="fill:#b6f0be; stroke:none;" d="M42 272L42 273L46 273L42 272z"/>
<path style="fill:#a0cca9; stroke:none;" d="M113.667 298.333L114.333 298.667L113.667 298.333z"/>
<path style="fill:#96bfa1; stroke:none;" d="M18.6667 305.333L19.3333 305.667L18.6667 305.333z"/>
<path style="fill:#8ab997; stroke:none;" d="M38.6667 309.333L39.3333 309.667L38.6667 309.333z"/>
<path style="fill:#96be9b; stroke:none;" d="M48 310L48 311L64 311L48 310z"/>
</svg>
